<?xml version="1.0" encoding="UTF-8" standalone="no"?> <!-- Created with Vectornator for iOS (http://vectornator.io/) --><!DOCTYPE svg PUBLIC "-//W3C//DTD SVG 1.1//EN" "http://www.w3.org/Graphics/SVG/1.1/DTD/svg11.dtd">
<svg style="fill-rule:evenodd;clip-rule:evenodd;stroke-linecap:round;stroke-linejoin:round;" xmlns:vectornator="http://vectornator.io" xmlns:xlink="http://www.w3.org/1999/xlink" xmlns="http://www.w3.org/2000/svg" xml:space="preserve" version="1.1" viewBox="0 0 800 800">
<metadata>
<vectornator:setting key="DimensionsVisible" value="1"/>
<vectornator:setting key="New" value="1"/>
<vectornator:setting key="SnapToPoints" value="0"/>
<vectornator:setting key="GuidesVisible" value="1"/>
<vectornator:setting key="RulersVisible" value="1"/>
<vectornator:setting key="CMYKEnabledKey" value="0"/>
<vectornator:setting key="SnapToEdges" value="0"/>
<vectornator:setting key="DisplayWhiteBackground" value="0"/>
<vectornator:setting key="SnapToGuides" value="1"/>
<vectornator:setting key="GridSpacing" value="36"/>
<vectornator:setting key="SnapToGrid" value="0"/>
<vectornator:setting key="Units" value="Pixels"/>
<vectornator:setting key="DynamicGuides" value="0"/>
</metadata>
<defs>
<linearGradient y1="454.028" id="LinearGradient" x1="318.528" y2="454.028" x2="860.655" gradientUnits="userSpaceOnUse" gradientTransform="matrix(1 0 0 1 -197.758 -26.7353)">
<stop stop-color="#900208" offset="0"/>
<stop stop-color="#f10063" offset="1"/>
</linearGradient>
<linearGradient y1="426.98" id="LinearGradient_2" x1="273.131" y2="426.98" x2="927.56" gradientUnits="userSpaceOnUse" gradientTransform="matrix(1 0 0 1 -197.758 -26.7353)">
<stop stop-color="#05082f" offset="0"/>
<stop stop-color="#006ec6" offset="0.996738"/>
</linearGradient>
</defs>
<g id="Color" vectornator:layerName="Color">
<path d="M391.834+155.129C242.129+155.129+120.77+276.98+120.77+427.293C120.77+486.499+139.654+541.237+171.626+585.904L194.772+538.015C176.478+505.262+166.008+467.517+166.008+427.293C166.008+302.065+267.112+200.546+391.834+200.546C516.555+200.546+617.66+302.065+617.66+427.293C617.66+552.521+516.555+654.041+391.834+654.041C353.76+654.041+317.905+644.545+286.438+627.838L268.1+669.412C305.207+688.571+347.236+699.458+391.834+699.458C541.538+699.458+662.897+577.606+662.897+427.293C662.897+276.98+541.538+155.129+391.834+155.129Z" opacity="1" fill="url(#LinearGradient)"/>
<path stroke="#000000" stroke-opacity="0" stroke-width="36.85" d="M437.563+74.8209L366.775+221.094C263.826+233.658+184.073+321.296+184.073+427.639C184.073+441.867+185.489+455.765+188.208+469.191C188.23+469.296+188.254+469.4+188.275+469.505C193.215+493.431+201.915+515.983+214.299+536.136L164.994+645.488L225.804+725.67L278.682+602.071C311.345+623.378+350.327+635.802+392.236+635.802C409.447+635.802+426.151+633.65+442.147+629.712C442.163+629.708+442.176+629.693+442.192+629.689C469.668+622.841+495.155+610.774+517.093+594.228C517.101+594.222+517.107+594.212+517.116+594.205C556.539+564.608+585.079+521.336+595.769+471.438L693.165+453.483L729.802+352.469L595.297+381.84C584.436+333.496+556.79+291.531+518.756+262.376L519.295+75.0006L437.563+74.8209ZM442.642+219.903L442.709+396.672L518.441+378.672L518.666+300.58C542.363+324.16+559.446+354.357+567.049+388.133L349.673+436.448L442.642+219.903ZM351.246+253.163L253.041+456.089L216.591+463.46C214.241+451.882+212.995+439.911+212.995+427.639C212.995+342.758+272.02+271.71+351.246+253.163ZM564.465+477.214C555.734+507.599+539.214+534.667+517.16+556.114L517.228+485.933L564.465+477.214ZM112.633+485.056L75.3735+492.63L128.723+537.417C121.763+520.704+116.346+503.201+112.633+485.056ZM442.012+496.72L442.125+599.801C426.282+604.384+409.555+606.88+392.236+606.88C354.343+606.88+319.205+595.102+290.256+575.036L314.099+519.327L442.012+496.72Z" fill="url(#LinearGradient_2)" stroke-linecap="butt" opacity="1" stroke-linejoin="round"/>
</g>
<g id="Flat" vectornator:layerName="Flat" visibility="hidden">
<path d="M589.591+181.864C439.887+181.864+318.528+303.716+318.528+454.028C318.528+513.234+337.411+567.972+369.383+612.639L392.53+564.75C374.236+531.998+363.765+494.252+363.765+454.028C363.765+328.8+464.87+227.281+589.591+227.281C714.313+227.281+815.418+328.8+815.418+454.028C815.418+579.257+714.313+680.776+589.591+680.776C551.518+680.776+515.663+671.28+484.195+654.573L465.858+696.147C502.965+715.306+544.994+726.193+589.591+726.193C739.296+726.193+860.655+604.341+860.655+454.028C860.655+303.716+739.296+181.864+589.591+181.864Z" opacity="1" fill="#d60029"/>
<path stroke="#000000" stroke-opacity="0" stroke-width="36.85" d="M635.321+101.556L564.532+247.83C461.583+260.393+381.831+348.031+381.831+454.374C381.831+468.603+383.246+482.5+385.966+495.926C385.987+496.032+386.011+496.135+386.033+496.241C390.973+520.166+399.672+542.719+412.056+562.872L362.752+672.223L423.562+752.405L476.44+628.806C509.102+650.113+548.085+662.537+589.994+662.537C607.205+662.537+623.908+660.385+639.905+656.447C639.921+656.443+639.934+656.429+639.95+656.425C667.425+649.576+692.912+637.509+714.851+620.963C714.859+620.957+714.865+620.947+714.873+620.941C754.297+591.344+782.837+548.072+793.527+498.173L890.923+480.218L927.559+379.204L793.055+408.575C782.194+360.231+754.548+318.266+716.514+289.112L717.053+101.736L635.321+101.556ZM640.399+246.639L640.467+423.407L716.199+405.407L716.424+327.315C740.121+350.895+757.204+381.092+764.807+414.868L547.431+463.184L640.399+246.639ZM549.004+279.898L450.799+482.825L414.348+490.196C411.999+478.617+410.753+466.647+410.753+454.374C410.753+369.494+469.778+298.445+549.004+279.898ZM762.223+503.949C753.492+534.334+736.971+561.403+714.918+582.85L714.986+512.668L762.223+503.949ZM310.391+511.792L273.131+519.365L326.481+564.153C319.521+547.439+314.104+529.936+310.391+511.792ZM639.77+523.455L639.882+626.536C624.04+631.12+607.313+633.615+589.994+633.615C552.101+633.615+516.963+621.838+488.013+601.772L511.857+546.062L639.77+523.455Z" fill="#0a32a1" stroke-linecap="butt" opacity="1" stroke-linejoin="round"/>
<path d="M127.764+867.429L160.997+867.429L213.547+1005.97L169.928+1005.97L165.359+993.508L123.402+993.508L118.832+1005.97L75.2138+1005.97L127.764+867.429ZM153.727+962.975L144.38+938.673L135.034+962.975L153.727+962.975Z" opacity="1" fill="#1037a7"/>
<path d="M206.277+867.429L242.626+867.429L280.844+920.81L280.844+867.429L324.255+867.429L324.255+1005.97L287.699+1005.97L249.688+952.797L249.688+1005.97L206.277+1005.97L206.277+867.429Z" opacity="1" fill="#1037a7"/>
<path d="M329.794+867.429L366.143+867.429L404.361+920.81L404.361+867.429L447.772+867.429L447.772+1005.97L411.216+1005.97L373.205+952.797L373.205+1005.97L329.794+1005.97L329.794+867.429Z" opacity="1" fill="#1037a7"/>
<path d="M453.311+867.429L534.94+867.429L534.94+903.778L497.553+903.778L497.553+919.148L534.317+919.148L534.317+953.628L497.553+953.628L497.553+969.621L536.394+969.621L536.394+1005.97L453.311+1005.97L453.311+867.429Z" opacity="1" fill="#1037a7"/>
<path d="M581.674+867.429L614.907+867.429L667.457+1005.97L623.839+1005.97L619.269+993.508L577.312+993.508L572.743+1005.97L529.124+1005.97L581.674+867.429ZM607.638+962.975L598.291+938.673L588.944+962.975L607.638+962.975Z" opacity="1" fill="#1037a7"/>
<path d="M660.188+867.429L707.96+867.429C716.823+867.429+725.027+868.606+732.574+870.96C740.121+873.314+746.663+876.776+752.202+881.345C757.741+885.915+762.068+891.558+765.184+898.274C768.3+904.989+769.857+912.709+769.857+921.433C769.857+928.357+768.888+934.242+766.949+939.088C765.011+943.935+762.865+947.95+760.51+951.135C757.741+954.735+754.625+957.782+751.164+960.274L777.127+1005.97L725.2+1005.97L704.429+970.867L704.429+1005.97L660.188+1005.97L660.188+867.429ZM704.429+935.557L706.714+935.557C711.976+935.557+716.442+934.38+720.111+932.026C723.781+929.672+725.616+925.726+725.616+920.187C725.616+914.648+723.781+910.701+720.111+908.347C716.442+905.993+711.976+904.816+706.714+904.816L704.429+904.816L704.429+935.557Z" opacity="1" fill="#1037a7"/>
<path d="M766.742+936.803C766.742+925.726+768.68+915.721+772.558+906.79C776.435+897.858+781.697+890.208+788.343+883.838C794.99+877.468+802.744+872.587+811.607+869.195C820.469+865.802+829.885+864.106+839.855+864.106C847.748+864.106+854.775+864.867+860.937+866.39C867.099+867.914+872.396+869.645+876.827+871.583C881.95+873.799+886.381+876.222+890.12+878.853L868.311+917.279C866.095+915.617+863.672+914.025+861.041+912.502C858.687+911.394+855.883+910.321+852.629+909.282C849.375+908.244+845.671+907.724+841.516+907.724C837.224+907.724+833.277+908.486+829.677+910.009C826.077+911.532+822.927+913.609+820.226+916.24C817.526+918.871+815.415+921.952+813.891+925.483C812.368+929.014+811.607+932.788+811.607+936.803C811.607+940.819+812.403+944.592+813.995+948.123C815.588+951.654+817.769+954.735+820.538+957.366C823.307+959.997+826.562+962.074+830.3+963.598C834.039+965.121+838.124+965.882+842.555+965.882C846.986+965.882+850.933+965.329+854.394+964.221C857.856+963.113+860.764+961.867+863.118+960.482C865.887+958.959+868.311+957.159+870.388+955.082L892.197+993.508C888.458+996.554+884.027+999.254+878.904+1001.61C874.473+1003.55+869.142+1005.35+862.91+1007.01C856.679+1008.67+849.548+1009.5+841.516+1009.5C830.716+1009.5+820.746+1007.74+811.607+1004.2C802.467+1000.67+794.575+995.723+787.928+989.353C781.281+982.984+776.089+975.333+772.35+966.402C768.611+957.47+766.742+947.604+766.742+936.803Z" opacity="1" fill="#1037a7"/>
<path d="M887.004+867.429L931.246+867.429L931.246+914.579L955.963+914.579L955.963+867.429L1000.41+867.429L1000.41+1005.97L955.963+1005.97L955.963+954.666L931.246+954.666L931.246+1005.97L887.004+1005.97L887.004+867.429Z" opacity="1" fill="#1037a7"/>
<path d="M1036.14+946.358L993.143+867.429L1042.37+867.429L1058.36+896.716L1074.15+867.429L1123.38+867.429L1080.38+946.358L1080.38+1005.97L1036.14+1005.97L1036.14+946.358Z" opacity="1" fill="#1037a7"/>
<path d="M441.397+1031.77L431.88+1076.65L445.13+1076.65C451.91+1076.65+457.353+1073.31+461.458+1066.62C463.698+1062.95+465.346+1058.58+466.403+1053.51C467.896+1046.51+467.943+1041.14+466.543+1037.39C465.144+1033.64+461.178+1031.77+454.647+1031.77L441.397+1031.77ZM469.949+1021.32C474.428+1022.9+477.709+1025.81+479.793+1030.04C481.472+1033.46+482.32+1037.16+482.335+1041.15C482.351+1045.13+481.986+1048.92+481.239+1052.53C479.28+1061.67+475.796+1069.42+470.789+1075.76C464.009+1084.32+455.424+1088.59+445.036+1088.59L415.412+1088.59L430.014+1019.83L459.639+1019.83C463.869+1019.89+467.305+1020.39+469.949+1021.32Z" opacity="1" fill="#d60029"/>
<path d="M497.568+1088.59L483.292+1088.59L497.894+1019.83L512.17+1019.83L497.568+1088.59Z" opacity="1" fill="#d60029"/>
<path d="M567.221+1041.29C567.127+1036.59+565.168+1033.31+561.342+1031.44C559.196+1030.42+556.677+1029.9+553.785+1029.9C548.249+1029.9+543.257+1031.99+538.809+1036.18C534.361+1040.36+531.236+1046.65+529.432+1055.05C527.659+1063.51+528.32+1069.5+531.415+1073.01C534.509+1076.52+538.514+1078.28+543.428+1078.28C548.249+1078.28+552.502+1076.89+556.187+1074.11C559.873+1071.32+562.54+1067.68+564.188+1063.17L548.28+1063.17L550.752+1051.69L579.397+1051.69L571.56+1088.59L562.042+1088.59L562.416+1080.01C558.932+1083.27+555.946+1085.58+553.458+1086.91C549.166+1089.25+544.252+1090.41+538.716+1090.41C529.603+1090.41+522.807+1087.25+518.328+1080.94C513.632+1074.6+512.45+1065.92+514.783+1054.91C517.146+1043.77+522.107+1034.85+529.665+1028.13C537.223+1021.41+546.04+1018.05+556.117+1018.05C564.857+1018.05+571.404+1020.27+575.758+1024.7C580.113+1029.13+581.979+1034.66+581.357+1041.29L567.221+1041.29Z" opacity="1" fill="#d60029"/>
<path d="M598.432+1088.59L584.156+1088.59L598.758+1019.83L613.034+1019.83L598.432+1088.59Z" opacity="1" fill="#d60029"/>
<path d="M676.389+1019.83L673.776+1032L653.202+1032L641.213+1088.59L626.75+1088.59L638.74+1032L618.073+1032L620.685+1019.83L676.389+1019.83Z" opacity="1" fill="#d60029"/>
<path d="M687.446+1062.61L704.894+1062.61L702.048+1035.55L687.446+1062.61ZM697.43+1019.83L713.665+1019.83L723.415+1088.59L707.833+1088.59L706.387+1074.46L681.054+1074.46L673.31+1088.59L658.288+1088.59L697.43+1019.83Z" opacity="1" fill="#d60029"/>
<path d="M746.742+1019.83L761.111+1019.83L749.121+1076.23L783.178+1076.23L780.565+1088.59L732.139+1088.59L746.742+1019.83Z" opacity="1" fill="#d60029"/>
</g>
<g id="Black" vectornator:layerName="Black" visibility="hidden">
<path d="M589.591+181.864C439.887+181.864+318.528+303.716+318.528+454.028C318.528+513.234+337.411+567.972+369.383+612.639L392.53+564.75C374.236+531.998+363.765+494.252+363.765+454.028C363.765+328.8+464.87+227.281+589.591+227.281C714.313+227.281+815.418+328.8+815.418+454.028C815.418+579.257+714.313+680.776+589.591+680.776C551.518+680.776+515.663+671.28+484.195+654.573L465.858+696.147C502.965+715.306+544.994+726.193+589.591+726.193C739.296+726.193+860.655+604.341+860.655+454.028C860.655+303.716+739.296+181.864+589.591+181.864Z" opacity="1" fill="#000000"/>
<path stroke="#000000" stroke-opacity="0" stroke-width="36.85" d="M635.321+101.556L564.532+247.83C461.583+260.393+381.831+348.031+381.831+454.374C381.831+468.603+383.246+482.5+385.966+495.926C385.987+496.032+386.011+496.135+386.033+496.241C390.973+520.166+399.672+542.719+412.056+562.872L362.752+672.223L423.562+752.405L476.44+628.806C509.102+650.113+548.085+662.537+589.994+662.537C607.205+662.537+623.908+660.385+639.905+656.447C639.921+656.443+639.934+656.429+639.95+656.425C667.425+649.576+692.912+637.509+714.851+620.963C714.859+620.957+714.865+620.947+714.873+620.941C754.297+591.344+782.837+548.072+793.527+498.173L890.923+480.218L927.559+379.204L793.055+408.575C782.194+360.231+754.548+318.266+716.514+289.112L717.053+101.736L635.321+101.556ZM640.399+246.639L640.467+423.407L716.199+405.407L716.424+327.315C740.121+350.895+757.204+381.092+764.807+414.868L547.431+463.184L640.399+246.639ZM549.004+279.898L450.799+482.825L414.348+490.196C411.999+478.617+410.753+466.647+410.753+454.374C410.753+369.494+469.778+298.445+549.004+279.898ZM762.223+503.949C753.492+534.334+736.971+561.403+714.918+582.85L714.986+512.668L762.223+503.949ZM310.391+511.792L273.131+519.365L326.481+564.153C319.521+547.439+314.104+529.936+310.391+511.792ZM639.77+523.455L639.882+626.536C624.04+631.12+607.313+633.615+589.994+633.615C552.101+633.615+516.963+621.838+488.013+601.772L511.857+546.062L639.77+523.455Z" fill="#000000" stroke-linecap="butt" opacity="1" stroke-linejoin="round"/>
<path d="M127.764+867.429L160.997+867.429L213.547+1005.97L169.928+1005.97L165.359+993.508L123.402+993.508L118.832+1005.97L75.2138+1005.97L127.764+867.429ZM153.727+962.975L144.38+938.673L135.034+962.975L153.727+962.975Z" opacity="1" fill="#000000"/>
<path d="M206.277+867.429L242.626+867.429L280.844+920.81L280.844+867.429L324.255+867.429L324.255+1005.97L287.699+1005.97L249.688+952.797L249.688+1005.97L206.277+1005.97L206.277+867.429Z" opacity="1" fill="#000000"/>
<path d="M329.794+867.429L366.143+867.429L404.361+920.81L404.361+867.429L447.772+867.429L447.772+1005.97L411.216+1005.97L373.205+952.797L373.205+1005.97L329.794+1005.97L329.794+867.429Z" opacity="1" fill="#000000"/>
<path d="M453.311+867.429L534.94+867.429L534.94+903.778L497.553+903.778L497.553+919.148L534.317+919.148L534.317+953.628L497.553+953.628L497.553+969.621L536.394+969.621L536.394+1005.97L453.311+1005.97L453.311+867.429Z" opacity="1" fill="#000000"/>
<path d="M581.674+867.429L614.907+867.429L667.457+1005.97L623.839+1005.97L619.269+993.508L577.312+993.508L572.743+1005.97L529.124+1005.97L581.674+867.429ZM607.638+962.975L598.291+938.673L588.944+962.975L607.638+962.975Z" opacity="1" fill="#000000"/>
<path d="M660.188+867.429L707.96+867.429C716.823+867.429+725.027+868.606+732.574+870.96C740.121+873.314+746.663+876.776+752.202+881.345C757.741+885.915+762.068+891.558+765.184+898.274C768.3+904.989+769.857+912.709+769.857+921.433C769.857+928.357+768.888+934.242+766.949+939.088C765.011+943.935+762.865+947.95+760.51+951.135C757.741+954.735+754.625+957.782+751.164+960.274L777.127+1005.97L725.2+1005.97L704.429+970.867L704.429+1005.97L660.188+1005.97L660.188+867.429ZM704.429+935.557L706.714+935.557C711.976+935.557+716.442+934.38+720.111+932.026C723.781+929.672+725.616+925.726+725.616+920.187C725.616+914.648+723.781+910.701+720.111+908.347C716.442+905.993+711.976+904.816+706.714+904.816L704.429+904.816L704.429+935.557Z" opacity="1" fill="#000000"/>
<path d="M766.742+936.803C766.742+925.726+768.68+915.721+772.558+906.79C776.435+897.858+781.697+890.208+788.343+883.838C794.99+877.468+802.744+872.587+811.607+869.195C820.469+865.802+829.885+864.106+839.855+864.106C847.748+864.106+854.775+864.867+860.937+866.39C867.099+867.914+872.396+869.645+876.827+871.583C881.95+873.799+886.381+876.222+890.12+878.853L868.311+917.279C866.095+915.617+863.672+914.025+861.041+912.502C858.687+911.394+855.883+910.321+852.629+909.282C849.375+908.244+845.671+907.724+841.516+907.724C837.224+907.724+833.277+908.486+829.677+910.009C826.077+911.532+822.927+913.609+820.226+916.24C817.526+918.871+815.415+921.952+813.891+925.483C812.368+929.014+811.607+932.788+811.607+936.803C811.607+940.819+812.403+944.592+813.995+948.123C815.588+951.654+817.769+954.735+820.538+957.366C823.307+959.997+826.562+962.074+830.3+963.598C834.039+965.121+838.124+965.882+842.555+965.882C846.986+965.882+850.933+965.329+854.394+964.221C857.856+963.113+860.764+961.867+863.118+960.482C865.887+958.959+868.311+957.159+870.388+955.082L892.197+993.508C888.458+996.554+884.027+999.254+878.904+1001.61C874.473+1003.55+869.142+1005.35+862.91+1007.01C856.679+1008.67+849.548+1009.5+841.516+1009.5C830.716+1009.5+820.746+1007.74+811.607+1004.2C802.467+1000.67+794.575+995.723+787.928+989.353C781.281+982.984+776.089+975.333+772.35+966.402C768.611+957.47+766.742+947.604+766.742+936.803Z" opacity="1" fill="#000000"/>
<path d="M887.004+867.429L931.246+867.429L931.246+914.579L955.963+914.579L955.963+867.429L1000.41+867.429L1000.41+1005.97L955.963+1005.97L955.963+954.666L931.246+954.666L931.246+1005.97L887.004+1005.97L887.004+867.429Z" opacity="1" fill="#000000"/>
<path d="M1036.14+946.358L993.143+867.429L1042.37+867.429L1058.36+896.716L1074.15+867.429L1123.38+867.429L1080.38+946.358L1080.38+1005.97L1036.14+1005.97L1036.14+946.358Z" opacity="1" fill="#000000"/>
<path d="M441.397+1031.77L431.88+1076.65L445.13+1076.65C451.91+1076.65+457.353+1073.31+461.458+1066.62C463.698+1062.95+465.346+1058.58+466.403+1053.51C467.896+1046.51+467.943+1041.14+466.543+1037.39C465.144+1033.64+461.178+1031.77+454.647+1031.77L441.397+1031.77ZM469.949+1021.32C474.428+1022.9+477.709+1025.81+479.793+1030.04C481.472+1033.46+482.32+1037.16+482.335+1041.15C482.351+1045.13+481.986+1048.92+481.239+1052.53C479.28+1061.67+475.796+1069.42+470.789+1075.76C464.009+1084.32+455.424+1088.59+445.036+1088.59L415.412+1088.59L430.014+1019.83L459.639+1019.83C463.869+1019.89+467.305+1020.39+469.949+1021.32Z" opacity="1" fill="#000000"/>
<path d="M497.568+1088.59L483.292+1088.59L497.894+1019.83L512.17+1019.83L497.568+1088.59Z" opacity="1" fill="#000000"/>
<path d="M567.221+1041.29C567.127+1036.59+565.168+1033.31+561.342+1031.44C559.196+1030.42+556.677+1029.9+553.785+1029.9C548.249+1029.9+543.257+1031.99+538.809+1036.18C534.361+1040.36+531.236+1046.65+529.432+1055.05C527.659+1063.51+528.32+1069.5+531.415+1073.01C534.509+1076.52+538.514+1078.28+543.428+1078.28C548.249+1078.28+552.502+1076.89+556.187+1074.11C559.873+1071.32+562.54+1067.68+564.188+1063.17L548.28+1063.17L550.752+1051.69L579.397+1051.69L571.56+1088.59L562.042+1088.59L562.416+1080.01C558.932+1083.27+555.946+1085.58+553.458+1086.91C549.166+1089.25+544.252+1090.41+538.716+1090.41C529.603+1090.41+522.807+1087.25+518.328+1080.94C513.632+1074.6+512.45+1065.92+514.783+1054.91C517.146+1043.77+522.107+1034.85+529.665+1028.13C537.223+1021.41+546.04+1018.05+556.117+1018.05C564.857+1018.05+571.404+1020.27+575.758+1024.7C580.113+1029.13+581.979+1034.66+581.357+1041.29L567.221+1041.29Z" opacity="1" fill="#000000"/>
<path d="M598.432+1088.59L584.156+1088.59L598.758+1019.83L613.034+1019.83L598.432+1088.59Z" opacity="1" fill="#000000"/>
<path d="M676.389+1019.83L673.776+1032L653.202+1032L641.213+1088.59L626.75+1088.59L638.74+1032L618.073+1032L620.685+1019.83L676.389+1019.83Z" opacity="1" fill="#000000"/>
<path d="M687.446+1062.61L704.894+1062.61L702.048+1035.55L687.446+1062.61ZM697.43+1019.83L713.665+1019.83L723.415+1088.59L707.833+1088.59L706.387+1074.46L681.054+1074.46L673.31+1088.59L658.288+1088.59L697.43+1019.83Z" opacity="1" fill="#000000"/>
<path d="M746.742+1019.83L761.111+1019.83L749.121+1076.23L783.178+1076.23L780.565+1088.59L732.139+1088.59L746.742+1019.83Z" opacity="1" fill="#000000"/>
</g>
<g id="White" vectornator:layerName="White" visibility="hidden">
<path d="M589.591+181.864C439.887+181.864+318.528+303.716+318.528+454.028C318.528+513.234+337.411+567.972+369.383+612.639L392.53+564.75C374.236+531.998+363.765+494.252+363.765+454.028C363.765+328.8+464.87+227.281+589.591+227.281C714.313+227.281+815.418+328.8+815.418+454.028C815.418+579.257+714.313+680.776+589.591+680.776C551.518+680.776+515.663+671.28+484.195+654.573L465.858+696.147C502.965+715.306+544.994+726.193+589.591+726.193C739.296+726.193+860.655+604.341+860.655+454.028C860.655+303.716+739.296+181.864+589.591+181.864Z" opacity="1" fill="#ffffff"/>
<path stroke="#000000" stroke-opacity="0" stroke-width="36.85" d="M635.321+101.556L564.532+247.83C461.583+260.393+381.831+348.031+381.831+454.374C381.831+468.603+383.246+482.5+385.966+495.926C385.987+496.032+386.011+496.135+386.033+496.241C390.973+520.166+399.672+542.719+412.056+562.872L362.752+672.223L423.562+752.405L476.44+628.806C509.102+650.113+548.085+662.537+589.994+662.537C607.205+662.537+623.908+660.385+639.905+656.447C639.921+656.443+639.934+656.429+639.95+656.425C667.425+649.576+692.912+637.509+714.851+620.963C714.859+620.957+714.865+620.947+714.873+620.941C754.297+591.344+782.837+548.072+793.527+498.173L890.923+480.218L927.559+379.204L793.055+408.575C782.194+360.231+754.548+318.266+716.514+289.112L717.053+101.736L635.321+101.556ZM640.399+246.639L640.467+423.407L716.199+405.407L716.424+327.315C740.121+350.895+757.204+381.092+764.807+414.868L547.431+463.184L640.399+246.639ZM549.004+279.898L450.799+482.825L414.348+490.196C411.999+478.617+410.753+466.647+410.753+454.374C410.753+369.494+469.778+298.445+549.004+279.898ZM762.223+503.949C753.492+534.334+736.971+561.403+714.918+582.85L714.986+512.668L762.223+503.949ZM310.391+511.792L273.131+519.365L326.481+564.153C319.521+547.439+314.104+529.936+310.391+511.792ZM639.77+523.455L639.882+626.536C624.04+631.12+607.313+633.615+589.994+633.615C552.101+633.615+516.963+621.838+488.013+601.772L511.857+546.062L639.77+523.455Z" fill="#ffffff" stroke-linecap="butt" opacity="1" stroke-linejoin="round"/>
<path d="M127.764+867.429L160.997+867.429L213.547+1005.97L169.928+1005.97L165.359+993.508L123.402+993.508L118.832+1005.97L75.2138+1005.97L127.764+867.429ZM153.727+962.975L144.38+938.673L135.034+962.975L153.727+962.975Z" opacity="1" fill="#ffffff"/>
<path d="M206.277+867.429L242.626+867.429L280.844+920.81L280.844+867.429L324.255+867.429L324.255+1005.97L287.699+1005.97L249.688+952.797L249.688+1005.97L206.277+1005.97L206.277+867.429Z" opacity="1" fill="#ffffff"/>
<path d="M329.794+867.429L366.143+867.429L404.361+920.81L404.361+867.429L447.772+867.429L447.772+1005.97L411.216+1005.97L373.205+952.797L373.205+1005.97L329.794+1005.97L329.794+867.429Z" opacity="1" fill="#ffffff"/>
<path d="M453.311+867.429L534.94+867.429L534.94+903.778L497.553+903.778L497.553+919.148L534.317+919.148L534.317+953.628L497.553+953.628L497.553+969.621L536.394+969.621L536.394+1005.97L453.311+1005.97L453.311+867.429Z" opacity="1" fill="#ffffff"/>
<path d="M581.674+867.429L614.907+867.429L667.457+1005.97L623.839+1005.97L619.269+993.508L577.312+993.508L572.743+1005.97L529.124+1005.97L581.674+867.429ZM607.638+962.975L598.291+938.673L588.944+962.975L607.638+962.975Z" opacity="1" fill="#ffffff"/>
<path d="M660.188+867.429L707.96+867.429C716.823+867.429+725.027+868.606+732.574+870.96C740.121+873.314+746.663+876.776+752.202+881.345C757.741+885.915+762.068+891.558+765.184+898.274C768.3+904.989+769.857+912.709+769.857+921.433C769.857+928.357+768.888+934.242+766.949+939.088C765.011+943.935+762.865+947.95+760.51+951.135C757.741+954.735+754.625+957.782+751.164+960.274L777.127+1005.97L725.2+1005.97L704.429+970.867L704.429+1005.97L660.188+1005.97L660.188+867.429ZM704.429+935.557L706.714+935.557C711.976+935.557+716.442+934.38+720.111+932.026C723.781+929.672+725.616+925.726+725.616+920.187C725.616+914.648+723.781+910.701+720.111+908.347C716.442+905.993+711.976+904.816+706.714+904.816L704.429+904.816L704.429+935.557Z" opacity="1" fill="#ffffff"/>
<path d="M766.742+936.803C766.742+925.726+768.68+915.721+772.558+906.79C776.435+897.858+781.697+890.208+788.343+883.838C794.99+877.468+802.744+872.587+811.607+869.195C820.469+865.802+829.885+864.106+839.855+864.106C847.748+864.106+854.775+864.867+860.937+866.39C867.099+867.914+872.396+869.645+876.827+871.583C881.95+873.799+886.381+876.222+890.12+878.853L868.311+917.279C866.095+915.617+863.672+914.025+861.041+912.502C858.687+911.394+855.883+910.321+852.629+909.282C849.375+908.244+845.671+907.724+841.516+907.724C837.224+907.724+833.277+908.486+829.677+910.009C826.077+911.532+822.927+913.609+820.226+916.24C817.526+918.871+815.415+921.952+813.891+925.483C812.368+929.014+811.607+932.788+811.607+936.803C811.607+940.819+812.403+944.592+813.995+948.123C815.588+951.654+817.769+954.735+820.538+957.366C823.307+959.997+826.562+962.074+830.3+963.598C834.039+965.121+838.124+965.882+842.555+965.882C846.986+965.882+850.933+965.329+854.394+964.221C857.856+963.113+860.764+961.867+863.118+960.482C865.887+958.959+868.311+957.159+870.388+955.082L892.197+993.508C888.458+996.554+884.027+999.254+878.904+1001.61C874.473+1003.55+869.142+1005.35+862.91+1007.01C856.679+1008.67+849.548+1009.5+841.516+1009.5C830.716+1009.5+820.746+1007.74+811.607+1004.2C802.467+1000.67+794.575+995.723+787.928+989.353C781.281+982.984+776.089+975.333+772.35+966.402C768.611+957.47+766.742+947.604+766.742+936.803Z" opacity="1" fill="#ffffff"/>
<path d="M887.004+867.429L931.246+867.429L931.246+914.579L955.963+914.579L955.963+867.429L1000.41+867.429L1000.41+1005.97L955.963+1005.97L955.963+954.666L931.246+954.666L931.246+1005.97L887.004+1005.97L887.004+867.429Z" opacity="1" fill="#ffffff"/>
<path d="M1036.14+946.358L993.143+867.429L1042.37+867.429L1058.36+896.716L1074.15+867.429L1123.38+867.429L1080.38+946.358L1080.38+1005.97L1036.14+1005.97L1036.14+946.358Z" opacity="1" fill="#ffffff"/>
<path d="M441.397+1031.77L431.88+1076.65L445.13+1076.65C451.91+1076.65+457.353+1073.31+461.458+1066.62C463.698+1062.95+465.346+1058.58+466.403+1053.51C467.896+1046.51+467.943+1041.14+466.543+1037.39C465.144+1033.64+461.178+1031.77+454.647+1031.77L441.397+1031.77ZM469.949+1021.32C474.428+1022.9+477.709+1025.81+479.793+1030.04C481.472+1033.46+482.32+1037.16+482.335+1041.15C482.351+1045.13+481.986+1048.92+481.239+1052.53C479.28+1061.67+475.796+1069.42+470.789+1075.76C464.009+1084.32+455.424+1088.59+445.036+1088.59L415.412+1088.59L430.014+1019.83L459.639+1019.83C463.869+1019.89+467.305+1020.39+469.949+1021.32Z" opacity="1" fill="#ffffff"/>
<path d="M497.568+1088.59L483.292+1088.59L497.894+1019.83L512.17+1019.83L497.568+1088.59Z" opacity="1" fill="#ffffff"/>
<path d="M567.221+1041.29C567.127+1036.59+565.168+1033.31+561.342+1031.44C559.196+1030.42+556.677+1029.9+553.785+1029.9C548.249+1029.9+543.257+1031.99+538.809+1036.18C534.361+1040.36+531.236+1046.65+529.432+1055.05C527.659+1063.51+528.32+1069.5+531.415+1073.01C534.509+1076.52+538.514+1078.28+543.428+1078.28C548.249+1078.28+552.502+1076.89+556.187+1074.11C559.873+1071.32+562.54+1067.68+564.188+1063.17L548.28+1063.17L550.752+1051.69L579.397+1051.69L571.56+1088.59L562.042+1088.59L562.416+1080.01C558.932+1083.27+555.946+1085.58+553.458+1086.91C549.166+1089.25+544.252+1090.41+538.716+1090.41C529.603+1090.41+522.807+1087.25+518.328+1080.94C513.632+1074.6+512.45+1065.92+514.783+1054.91C517.146+1043.77+522.107+1034.85+529.665+1028.13C537.223+1021.41+546.04+1018.05+556.117+1018.05C564.857+1018.05+571.404+1020.27+575.758+1024.7C580.113+1029.13+581.979+1034.66+581.357+1041.29L567.221+1041.29Z" opacity="1" fill="#ffffff"/>
<path d="M598.432+1088.59L584.156+1088.59L598.758+1019.83L613.034+1019.83L598.432+1088.59Z" opacity="1" fill="#ffffff"/>
<path d="M676.389+1019.83L673.776+1032L653.202+1032L641.213+1088.59L626.75+1088.59L638.74+1032L618.073+1032L620.685+1019.83L676.389+1019.83Z" opacity="1" fill="#ffffff"/>
<path d="M687.446+1062.61L704.894+1062.61L702.048+1035.55L687.446+1062.61ZM697.43+1019.83L713.665+1019.83L723.415+1088.59L707.833+1088.59L706.387+1074.46L681.054+1074.46L673.31+1088.59L658.288+1088.59L697.43+1019.83Z" opacity="1" fill="#ffffff"/>
<path d="M746.742+1019.83L761.111+1019.83L749.121+1076.23L783.178+1076.23L780.565+1088.59L732.139+1088.59L746.742+1019.83Z" opacity="1" fill="#ffffff"/>
</g>
</svg>
