<?xml version="1.0" encoding="UTF-8" standalone="no"?> <!-- Created with Vectornator for iOS (http://vectornator.io/) --><!DOCTYPE svg PUBLIC "-//W3C//DTD SVG 1.1//EN" "http://www.w3.org/Graphics/SVG/1.1/DTD/svg11.dtd">
<svg style="fill-rule:evenodd;clip-rule:evenodd;stroke-linecap:round;stroke-linejoin:round;" xmlns:vectornator="http://vectornator.io" xmlns:xlink="http://www.w3.org/1999/xlink" xmlns="http://www.w3.org/2000/svg" xml:space="preserve" version="1.1" viewBox="0 0 800 800">
<metadata>
<vectornator:setting key="DimensionsVisible" value="1"/>
<vectornator:setting key="New" value="1"/>
<vectornator:setting key="SnapToPoints" value="0"/>
<vectornator:setting key="GuidesVisible" value="1"/>
<vectornator:setting key="RulersVisible" value="1"/>
<vectornator:setting key="CMYKEnabledKey" value="0"/>
<vectornator:setting key="SnapToEdges" value="0"/>
<vectornator:setting key="DisplayWhiteBackground" value="0"/>
<vectornator:setting key="SnapToGuides" value="1"/>
<vectornator:setting key="GridSpacing" value="36"/>
<vectornator:setting key="SnapToGrid" value="0"/>
<vectornator:setting key="Units" value="Pixels"/>
<vectornator:setting key="DynamicGuides" value="0"/>
</metadata>
<defs>
<linearGradient y1="454.028" id="LinearGradient" x1="318.528" y2="454.028" x2="860.655" gradientUnits="userSpaceOnUse" gradientTransform="matrix(1 0 0 1 -197.758 -26.7353)">
<stop stop-color="#900208" offset="0"/>
<stop stop-color="#f10063" offset="1"/>
</linearGradient>
<linearGradient y1="426.98" id="LinearGradient_2" x1="273.131" y2="426.98" x2="927.56" gradientUnits="userSpaceOnUse" gradientTransform="matrix(1 0 0 1 -197.758 -26.7353)">
<stop stop-color="#05082f" offset="0"/>
<stop stop-color="#006ec6" offset="0.996738"/>
</linearGradient>
</defs>
<g id="Color" vectornator:layerName="Color" visibility="hidden">
<path d="M391.834+155.129C242.129+155.129+120.77+276.98+120.77+427.293C120.77+486.499+139.654+541.237+171.626+585.904L194.772+538.015C176.478+505.262+166.008+467.517+166.008+427.293C166.008+302.065+267.112+200.546+391.834+200.546C516.555+200.546+617.66+302.065+617.66+427.293C617.66+552.521+516.555+654.041+391.834+654.041C353.76+654.041+317.905+644.545+286.438+627.838L268.1+669.412C305.207+688.571+347.236+699.458+391.834+699.458C541.538+699.458+662.897+577.606+662.897+427.293C662.897+276.98+541.538+155.129+391.834+155.129Z" opacity="1" fill="url(#LinearGradient)"/>
<path stroke="#000000" stroke-opacity="0" stroke-width="36.85" d="M437.563+74.8209L366.775+221.094C263.826+233.658+184.073+321.296+184.073+427.639C184.073+441.867+185.489+455.765+188.208+469.191C188.23+469.296+188.254+469.4+188.275+469.505C193.215+493.431+201.915+515.983+214.299+536.136L164.994+645.488L225.804+725.67L278.682+602.071C311.345+623.378+350.327+635.802+392.236+635.802C409.447+635.802+426.151+633.65+442.147+629.712C442.163+629.708+442.176+629.693+442.192+629.689C469.668+622.841+495.155+610.774+517.093+594.228C517.101+594.222+517.107+594.212+517.116+594.205C556.539+564.608+585.079+521.336+595.769+471.438L693.165+453.483L729.802+352.469L595.297+381.84C584.436+333.496+556.79+291.531+518.756+262.376L519.295+75.0006L437.563+74.8209ZM442.642+219.903L442.709+396.672L518.441+378.672L518.666+300.58C542.363+324.16+559.446+354.357+567.049+388.133L349.673+436.448L442.642+219.903ZM351.246+253.163L253.041+456.089L216.591+463.46C214.241+451.882+212.995+439.911+212.995+427.639C212.995+342.758+272.02+271.71+351.246+253.163ZM564.465+477.214C555.734+507.599+539.214+534.667+517.16+556.114L517.228+485.933L564.465+477.214ZM112.633+485.056L75.3735+492.63L128.723+537.417C121.763+520.704+116.346+503.201+112.633+485.056ZM442.012+496.72L442.125+599.801C426.282+604.384+409.555+606.88+392.236+606.88C354.343+606.88+319.205+595.102+290.256+575.036L314.099+519.327L442.012+496.72Z" fill="url(#LinearGradient_2)" stroke-linecap="butt" opacity="1" stroke-linejoin="round"/>
</g>
<g id="Flat" vectornator:layerName="Flat" visibility="hidden">
<path d="M391.834+155.129C242.129+155.129+120.77+276.98+120.77+427.293C120.77+486.499+139.654+541.237+171.626+585.904L194.772+538.015C176.478+505.262+166.008+467.517+166.008+427.293C166.008+302.065+267.112+200.546+391.834+200.546C516.555+200.546+617.66+302.065+617.66+427.293C617.66+552.521+516.555+654.041+391.834+654.041C353.76+654.041+317.905+644.545+286.438+627.838L268.1+669.412C305.207+688.571+347.236+699.458+391.834+699.458C541.538+699.458+662.897+577.606+662.897+427.293C662.897+276.98+541.538+155.129+391.834+155.129Z" opacity="1" fill="#d60029"/>
<path stroke="#000000" stroke-opacity="0" stroke-width="36.85" d="M437.563+74.8209L366.775+221.094C263.826+233.658+184.073+321.296+184.073+427.639C184.073+441.867+185.489+455.765+188.208+469.191C188.23+469.296+188.254+469.4+188.275+469.505C193.215+493.431+201.915+515.983+214.299+536.136L164.994+645.488L225.804+725.67L278.682+602.071C311.345+623.378+350.327+635.802+392.236+635.802C409.447+635.802+426.151+633.65+442.147+629.712C442.163+629.708+442.176+629.693+442.192+629.689C469.668+622.841+495.155+610.774+517.093+594.228C517.101+594.222+517.107+594.212+517.116+594.205C556.539+564.608+585.079+521.336+595.769+471.438L693.165+453.483L729.802+352.469L595.297+381.84C584.436+333.496+556.79+291.531+518.756+262.376L519.295+75.0006L437.563+74.8209ZM442.642+219.903L442.709+396.672L518.441+378.672L518.666+300.58C542.363+324.16+559.446+354.357+567.049+388.133L349.673+436.448L442.642+219.903ZM351.246+253.163L253.041+456.089L216.591+463.46C214.241+451.882+212.995+439.911+212.995+427.639C212.995+342.758+272.02+271.71+351.246+253.163ZM564.465+477.214C555.734+507.599+539.214+534.667+517.16+556.114L517.228+485.933L564.465+477.214ZM112.633+485.056L75.3735+492.63L128.723+537.417C121.763+520.704+116.346+503.201+112.633+485.056ZM442.012+496.72L442.125+599.801C426.282+604.384+409.555+606.88+392.236+606.88C354.343+606.88+319.205+595.102+290.256+575.036L314.099+519.327L442.012+496.72Z" fill="#0a32a1" stroke-linecap="butt" opacity="1" stroke-linejoin="round"/>
</g>
<g id="Black" vectornator:layerName="Black">
<path d="M391.834+155.129C242.129+155.129+120.77+276.98+120.77+427.293C120.77+486.499+139.654+541.237+171.626+585.904L194.772+538.015C176.478+505.262+166.008+467.517+166.008+427.293C166.008+302.065+267.112+200.546+391.834+200.546C516.555+200.546+617.66+302.065+617.66+427.293C617.66+552.521+516.555+654.041+391.834+654.041C353.76+654.041+317.905+644.545+286.438+627.838L268.1+669.412C305.207+688.571+347.236+699.458+391.834+699.458C541.538+699.458+662.897+577.606+662.897+427.293C662.897+276.98+541.538+155.129+391.834+155.129Z" opacity="1" fill="#000000"/>
<path stroke="#000000" stroke-opacity="0" stroke-width="36.85" d="M437.563+74.8209L366.775+221.094C263.826+233.658+184.073+321.296+184.073+427.639C184.073+441.867+185.489+455.765+188.208+469.191C188.23+469.296+188.254+469.4+188.275+469.505C193.215+493.431+201.915+515.983+214.299+536.136L164.994+645.488L225.804+725.67L278.682+602.071C311.345+623.378+350.327+635.802+392.236+635.802C409.447+635.802+426.151+633.65+442.147+629.712C442.163+629.708+442.176+629.693+442.192+629.689C469.668+622.841+495.155+610.774+517.093+594.228C517.101+594.222+517.107+594.212+517.116+594.205C556.539+564.608+585.079+521.336+595.769+471.438L693.165+453.483L729.802+352.469L595.297+381.84C584.436+333.496+556.79+291.531+518.756+262.376L519.295+75.0006L437.563+74.8209ZM442.642+219.903L442.709+396.672L518.441+378.672L518.666+300.58C542.363+324.16+559.446+354.357+567.049+388.133L349.673+436.448L442.642+219.903ZM351.246+253.163L253.041+456.089L216.591+463.46C214.241+451.882+212.995+439.911+212.995+427.639C212.995+342.758+272.02+271.71+351.246+253.163ZM564.465+477.214C555.734+507.599+539.214+534.667+517.16+556.114L517.228+485.933L564.465+477.214ZM112.633+485.056L75.3735+492.63L128.723+537.417C121.763+520.704+116.346+503.201+112.633+485.056ZM442.012+496.72L442.125+599.801C426.282+604.384+409.555+606.88+392.236+606.88C354.343+606.88+319.205+595.102+290.256+575.036L314.099+519.327L442.012+496.72Z" fill="#000000" stroke-linecap="butt" opacity="1" stroke-linejoin="round"/>
</g>
</svg>
