<?xml version="1.0" encoding="UTF-8" standalone="no"?> <!-- Created with Vectornator for iOS (http://vectornator.io/) --><!DOCTYPE svg PUBLIC "-//W3C//DTD SVG 1.1//EN" "http://www.w3.org/Graphics/SVG/1.1/DTD/svg11.dtd">
<svg style="fill-rule:evenodd;clip-rule:evenodd;stroke-linecap:round;stroke-linejoin:round;" xmlns:vectornator="http://vectornator.io" xmlns:xlink="http://www.w3.org/1999/xlink" xmlns="http://www.w3.org/2000/svg" xml:space="preserve" version="1.1" viewBox="0 0 1200 1200">
<metadata>
<vectornator:setting key="DimensionsVisible" value="1"/>
<vectornator:setting key="DynamicGuides" value="0"/>
<vectornator:setting key="SnapToPoints" value="0"/>
<vectornator:setting key="GuidesVisible" value="1"/>
<vectornator:setting key="RulersVisible" value="1"/>
<vectornator:setting key="CMYKEnabledKey" value="0"/>
<vectornator:setting key="SnapToEdges" value="0"/>
<vectornator:setting key="DisplayWhiteBackground" value="0"/>
<vectornator:setting key="SnapToGuides" value="1"/>
<vectornator:setting key="GridSpacing" value="36"/>
<vectornator:setting key="SnapToGrid" value="0"/>
<vectornator:setting key="Units" value="Pixels"/>
<vectornator:setting key="New" value="1"/>
</metadata>
<defs>
<linearGradient y1="454.028" id="LinearGradient" x1="318.528" y2="454.028" x2="860.655" gradientUnits="userSpaceOnUse" gradientTransform="matrix(1 0 0 1 0 0)">
<stop stop-color="#900208" offset="0"/>
<stop stop-color="#f10063" offset="1"/>
</linearGradient>
<linearGradient y1="426.98" id="LinearGradient_2" x1="273.131" y2="426.98" x2="927.56" gradientUnits="userSpaceOnUse" gradientTransform="matrix(1 0 0 1 0 0)">
<stop stop-color="#05082f" offset="0"/>
<stop stop-color="#006ec6" offset="0.996738"/>
</linearGradient>
<radialGradient cx="1742.27" r="1079.27" id="RadialGradient" gradientUnits="userSpaceOnUse" gradientTransform="matrix(0.692256 0 0 0.692256 -422.407 686.66)" cy="267.237">
<stop stop-color="#05082f" offset="0"/>
<stop stop-color="#006ec6" offset="0.996738"/>
</radialGradient>
<radialGradient cx="1742.27" r="1079.27" id="RadialGradient_2" gradientUnits="userSpaceOnUse" gradientTransform="matrix(0.692256 0 0 0.692256 -422.407 686.66)" cy="267.237">
<stop stop-color="#05082f" offset="0"/>
<stop stop-color="#006ec6" offset="0.996738"/>
</radialGradient>
<radialGradient cx="1742.27" r="1079.27" id="RadialGradient_3" gradientUnits="userSpaceOnUse" gradientTransform="matrix(0.692256 0 0 0.692256 -421.022 686.66)" cy="267.237">
<stop stop-color="#05082f" offset="0"/>
<stop stop-color="#006ec6" offset="0.996738"/>
</radialGradient>
<radialGradient cx="1742.27" r="1079.27" id="RadialGradient_4" gradientUnits="userSpaceOnUse" gradientTransform="matrix(0.692256 0 0 0.692256 -419.638 686.66)" cy="267.237">
<stop stop-color="#05082f" offset="0"/>
<stop stop-color="#006ec6" offset="0.996738"/>
</radialGradient>
<radialGradient cx="1742.27" r="1079.27" id="RadialGradient_5" gradientUnits="userSpaceOnUse" gradientTransform="matrix(0.692256 0 0 0.692256 -419.638 686.66)" cy="267.237">
<stop stop-color="#05082f" offset="0"/>
<stop stop-color="#006ec6" offset="0.996738"/>
</radialGradient>
<radialGradient cx="1742.27" r="1079.27" id="RadialGradient_6" gradientUnits="userSpaceOnUse" gradientTransform="matrix(0.692256 0 0 0.692256 -419.638 686.66)" cy="267.237">
<stop stop-color="#05082f" offset="0"/>
<stop stop-color="#006ec6" offset="0.996738"/>
</radialGradient>
<radialGradient cx="1742.27" r="1079.27" id="RadialGradient_7" gradientUnits="userSpaceOnUse" gradientTransform="matrix(0.692256 0 0 0.692256 -419.638 686.66)" cy="267.237">
<stop stop-color="#05082f" offset="0"/>
<stop stop-color="#006ec6" offset="0.996738"/>
</radialGradient>
<radialGradient cx="1742.27" r="1079.27" id="RadialGradient_8" gradientUnits="userSpaceOnUse" gradientTransform="matrix(0.692256 0 0 0.692256 -419.638 686.66)" cy="267.237">
<stop stop-color="#05082f" offset="0"/>
<stop stop-color="#006ec6" offset="0.996738"/>
</radialGradient>
<radialGradient cx="1742.27" r="1079.27" id="RadialGradient_9" gradientUnits="userSpaceOnUse" gradientTransform="matrix(0.692256 0 0 0.692256 -419.638 686.66)" cy="267.237">
<stop stop-color="#05082f" offset="0"/>
<stop stop-color="#006ec6" offset="0.996738"/>
</radialGradient>
</defs>
<g id="Color" vectornator:layerName="Color" visibility="hidden">
<path d="M589.591+181.864C439.887+181.864+318.528+303.716+318.528+454.028C318.528+513.234+337.411+567.972+369.383+612.639L392.53+564.75C374.236+531.998+363.765+494.252+363.765+454.028C363.765+328.8+464.87+227.281+589.591+227.281C714.313+227.281+815.418+328.8+815.418+454.028C815.418+579.257+714.313+680.776+589.591+680.776C551.518+680.776+515.663+671.28+484.195+654.573L465.858+696.147C502.965+715.306+544.994+726.193+589.591+726.193C739.296+726.193+860.655+604.341+860.655+454.028C860.655+303.716+739.296+181.864+589.591+181.864Z" opacity="1" fill="url(#LinearGradient)"/>
<path stroke="#000000" stroke-opacity="0" stroke-width="36.85" d="M635.321+101.556L564.532+247.83C461.583+260.393+381.831+348.031+381.831+454.374C381.831+468.603+383.246+482.5+385.966+495.926C385.987+496.032+386.011+496.135+386.033+496.241C390.973+520.166+399.672+542.719+412.056+562.872L362.752+672.223L423.562+752.405L476.44+628.806C509.102+650.113+548.085+662.537+589.994+662.537C607.205+662.537+623.908+660.385+639.905+656.447C639.921+656.443+639.934+656.429+639.95+656.425C667.425+649.576+692.912+637.509+714.851+620.963C714.859+620.957+714.865+620.947+714.873+620.941C754.297+591.344+782.837+548.072+793.527+498.173L890.923+480.218L927.559+379.204L793.055+408.575C782.194+360.231+754.548+318.266+716.514+289.112L717.053+101.736L635.321+101.556ZM640.399+246.639L640.467+423.407L716.199+405.407L716.424+327.315C740.121+350.895+757.204+381.092+764.807+414.868L547.431+463.184L640.399+246.639ZM549.004+279.898L450.799+482.825L414.348+490.196C411.999+478.617+410.753+466.647+410.753+454.374C410.753+369.494+469.778+298.445+549.004+279.898ZM762.223+503.949C753.492+534.334+736.971+561.403+714.918+582.85L714.986+512.668L762.223+503.949ZM310.391+511.792L273.131+519.365L326.481+564.153C319.521+547.439+314.104+529.936+310.391+511.792ZM639.77+523.455L639.882+626.536C624.04+631.12+607.313+633.615+589.994+633.615C552.101+633.615+516.963+621.838+488.013+601.772L511.857+546.062L639.77+523.455Z" fill="url(#LinearGradient_2)" stroke-linecap="butt" opacity="1" stroke-linejoin="round"/>
<path d="M441.397+1031.77L431.88+1076.65L445.13+1076.65C451.91+1076.65+457.353+1073.31+461.458+1066.62C463.698+1062.95+465.346+1058.58+466.403+1053.51C467.896+1046.51+467.943+1041.14+466.543+1037.39C465.144+1033.64+461.178+1031.77+454.647+1031.77L441.397+1031.77ZM469.949+1021.32C474.428+1022.9+477.709+1025.81+479.793+1030.04C481.472+1033.46+482.32+1037.16+482.335+1041.15C482.351+1045.13+481.986+1048.92+481.239+1052.53C479.28+1061.67+475.796+1069.42+470.789+1075.76C464.009+1084.32+455.424+1088.59+445.036+1088.59L415.412+1088.59L430.014+1019.83L459.639+1019.83C463.869+1019.89+467.305+1020.39+469.949+1021.32Z" opacity="1" fill="#d60029"/>
<path d="M497.568+1088.59L483.292+1088.59L497.894+1019.83L512.17+1019.83L497.568+1088.59Z" opacity="1" fill="#d60029"/>
<path d="M567.221+1041.29C567.127+1036.59+565.168+1033.31+561.342+1031.44C559.196+1030.42+556.677+1029.9+553.785+1029.9C548.249+1029.9+543.257+1031.99+538.809+1036.18C534.361+1040.36+531.236+1046.65+529.432+1055.05C527.659+1063.51+528.32+1069.5+531.415+1073.01C534.509+1076.52+538.514+1078.28+543.428+1078.28C548.249+1078.28+552.502+1076.89+556.187+1074.11C559.873+1071.32+562.54+1067.68+564.188+1063.17L548.28+1063.17L550.752+1051.69L579.397+1051.69L571.56+1088.59L562.042+1088.59L562.416+1080.01C558.932+1083.27+555.946+1085.58+553.458+1086.91C549.166+1089.25+544.252+1090.41+538.716+1090.41C529.603+1090.41+522.807+1087.25+518.328+1080.94C513.632+1074.6+512.45+1065.92+514.783+1054.91C517.146+1043.77+522.107+1034.85+529.665+1028.13C537.223+1021.41+546.04+1018.05+556.117+1018.05C564.857+1018.05+571.404+1020.27+575.758+1024.7C580.113+1029.13+581.979+1034.66+581.357+1041.29L567.221+1041.29Z" opacity="1" fill="#d60029"/>
<path d="M598.432+1088.59L584.156+1088.59L598.758+1019.83L613.034+1019.83L598.432+1088.59Z" opacity="1" fill="#d60029"/>
<path d="M676.389+1019.83L673.776+1032L653.202+1032L641.213+1088.59L626.75+1088.59L638.74+1032L618.073+1032L620.685+1019.83L676.389+1019.83Z" opacity="1" fill="#d60029"/>
<path d="M687.446+1062.61L704.894+1062.61L702.048+1035.55L687.446+1062.61ZM697.43+1019.83L713.665+1019.83L723.415+1088.59L707.833+1088.59L706.387+1074.46L681.054+1074.46L673.31+1088.59L658.288+1088.59L697.43+1019.83Z" opacity="1" fill="#d60029"/>
<path d="M746.742+1019.83L761.111+1019.83L749.121+1076.23L783.178+1076.23L780.565+1088.59L732.139+1088.59L746.742+1019.83Z" opacity="1" fill="#d60029"/>
<path d="M127.523+867.852L160.752+867.852L213.294+1006.37L169.682+1006.37L165.113+993.912L123.162+993.912L118.593+1006.37L74.9811+1006.37L127.523+867.852ZM153.483+963.384L144.137+939.085L134.792+963.384L153.483+963.384Z" opacity="1" fill="url(#RadialGradient)"/>
<path d="M206.025+867.852L242.369+867.852L280.581+921.225L280.581+867.852L323.986+867.852L323.986+1006.37L287.434+1006.37L249.43+953.207L249.43+1006.37L206.025+1006.37L206.025+867.852Z" opacity="1" fill="url(#RadialGradient_2)"/>
<path d="M329.524+867.852L365.867+867.852L404.08+921.225L404.08+867.852L447.484+867.852L447.484+1006.37L410.933+1006.37L372.928+953.207L372.928+1006.37L329.524+1006.37L329.524+867.852Z" opacity="1" fill="url(#RadialGradient_3)"/>
<path d="M453.022+867.852L534.639+867.852L534.639+904.196L497.257+904.196L497.257+919.564L534.016+919.564L534.016+954.038L497.257+954.038L497.257+970.029L536.093+970.029L536.093+1006.37L453.022+1006.37L453.022+867.852Z" opacity="1" fill="url(#RadialGradient_4)"/>
<path d="M581.366+867.852L614.595+867.852L667.137+1006.37L623.525+1006.37L618.956+993.912L577.005+993.912L572.436+1006.37L528.824+1006.37L581.366+867.852ZM607.326+963.384L597.98+939.085L588.635+963.384L607.326+963.384Z" opacity="1" fill="url(#RadialGradient_5)"/>
<path d="M659.868+867.852L707.634+867.852C716.495+867.852+724.698+869.029+732.244+871.383C739.789+873.736+746.331+877.198+751.869+881.767C757.407+886.335+761.734+891.977+764.849+898.692C767.964+905.407+769.522+913.126+769.522+921.848C769.522+928.771+768.552+934.655+766.614+939.501C764.676+944.346+762.53+948.362+760.176+951.546C757.407+955.146+754.292+958.192+750.831+960.684L776.79+1006.37L724.871+1006.37L704.103+971.275L704.103+1006.37L659.868+1006.37L659.868+867.852ZM704.103+935.97L706.388+935.97C711.649+935.97+716.114+934.793+719.783+932.44C723.452+930.086+725.286+926.14+725.286+920.602C725.286+915.064+723.452+911.118+719.783+908.765C716.114+906.411+711.649+905.234+706.388+905.234L704.103+905.234L704.103+935.97Z" opacity="1" fill="url(#RadialGradient_6)"/>
<path d="M766.406+937.216C766.406+926.14+768.345+916.137+772.221+907.207C776.098+898.277+781.359+890.627+788.005+884.259C794.65+877.89+802.404+873.01+811.265+869.617C820.125+866.225+829.54+864.529+839.509+864.529C847.4+864.529+854.427+865.291+860.588+866.814C866.749+868.337+872.045+870.067+876.475+872.006C881.598+874.221+886.028+876.644+889.766+879.274L867.96+917.695C865.745+916.033+863.322+914.441+860.692+912.918C858.338+911.81+855.534+910.737+852.281+909.699C849.027+908.661+845.324+908.141+841.17+908.141C836.878+908.141+832.932+908.903+829.332+910.426C825.733+911.949+822.583+914.026+819.883+916.656C817.183+919.287+815.072+922.367+813.549+925.898C812.026+929.428+811.265+933.201+811.265+937.216C811.265+941.231+812.061+945.004+813.653+948.535C815.245+952.065+817.426+955.146+820.195+957.776C822.964+960.407+826.217+962.484+829.955+964.007C833.694+965.53+837.778+966.291+842.208+966.291C846.639+966.291+850.585+965.737+854.046+964.63C857.507+963.522+860.415+962.276+862.768+960.891C865.537+959.368+867.96+957.569+870.037+955.492L891.843+993.912C888.105+996.958+883.675+999.658+878.552+1002.01C874.121+1003.95+868.791+1005.75+862.561+1007.41C856.33+1009.07+849.2+1009.9+841.17+1009.9C830.371+1009.9+820.402+1008.14+811.265+1004.61C802.127+1001.08+794.235+996.127+787.589+989.758C780.944+983.39+775.752+975.74+772.014+966.81C768.275+957.88+766.406+948.015+766.406+937.216Z" opacity="1" fill="url(#RadialGradient_7)"/>
<path d="M886.651+867.852L930.886+867.852L930.886+914.995L955.6+914.995L955.6+867.852L1000.04+867.852L1000.04+1006.37L955.6+1006.37L955.6+955.076L930.886+955.076L930.886+1006.37L886.651+1006.37L886.651+867.852Z" opacity="1" fill="url(#RadialGradient_8)"/>
<path d="M1035.76+946.769L992.774+867.852L1041.99+867.852L1057.98+897.135L1073.77+867.852L1122.99+867.852L1080+946.769L1080+1006.37L1035.76+1006.37L1035.76+946.769Z" opacity="1" fill="url(#RadialGradient_9)"/>
</g>
<g id="Flat" vectornator:layerName="Flat" visibility="hidden">
<path d="M589.591+181.864C439.887+181.864+318.528+303.716+318.528+454.028C318.528+513.234+337.411+567.972+369.383+612.639L392.53+564.75C374.236+531.998+363.765+494.252+363.765+454.028C363.765+328.8+464.87+227.281+589.591+227.281C714.313+227.281+815.418+328.8+815.418+454.028C815.418+579.257+714.313+680.776+589.591+680.776C551.518+680.776+515.663+671.28+484.195+654.573L465.858+696.147C502.965+715.306+544.994+726.193+589.591+726.193C739.296+726.193+860.655+604.341+860.655+454.028C860.655+303.716+739.296+181.864+589.591+181.864Z" opacity="1" fill="#d60029"/>
<path stroke="#000000" stroke-opacity="0" stroke-width="36.85" d="M635.321+101.556L564.532+247.83C461.583+260.393+381.831+348.031+381.831+454.374C381.831+468.603+383.246+482.5+385.966+495.926C385.987+496.032+386.011+496.135+386.033+496.241C390.973+520.166+399.672+542.719+412.056+562.872L362.752+672.223L423.562+752.405L476.44+628.806C509.102+650.113+548.085+662.537+589.994+662.537C607.205+662.537+623.908+660.385+639.905+656.447C639.921+656.443+639.934+656.429+639.95+656.425C667.425+649.576+692.912+637.509+714.851+620.963C714.859+620.957+714.865+620.947+714.873+620.941C754.297+591.344+782.837+548.072+793.527+498.173L890.923+480.218L927.559+379.204L793.055+408.575C782.194+360.231+754.548+318.266+716.514+289.112L717.053+101.736L635.321+101.556ZM640.399+246.639L640.467+423.407L716.199+405.407L716.424+327.315C740.121+350.895+757.204+381.092+764.807+414.868L547.431+463.184L640.399+246.639ZM549.004+279.898L450.799+482.825L414.348+490.196C411.999+478.617+410.753+466.647+410.753+454.374C410.753+369.494+469.778+298.445+549.004+279.898ZM762.223+503.949C753.492+534.334+736.971+561.403+714.918+582.85L714.986+512.668L762.223+503.949ZM310.391+511.792L273.131+519.365L326.481+564.153C319.521+547.439+314.104+529.936+310.391+511.792ZM639.77+523.455L639.882+626.536C624.04+631.12+607.313+633.615+589.994+633.615C552.101+633.615+516.963+621.838+488.013+601.772L511.857+546.062L639.77+523.455Z" fill="#0a32a1" stroke-linecap="butt" opacity="1" stroke-linejoin="round"/>
<path d="M127.764+867.429L160.997+867.429L213.547+1005.97L169.928+1005.97L165.359+993.508L123.402+993.508L118.832+1005.97L75.2138+1005.97L127.764+867.429ZM153.727+962.975L144.38+938.673L135.034+962.975L153.727+962.975Z" opacity="1" fill="#1037a7"/>
<path d="M206.277+867.429L242.626+867.429L280.844+920.81L280.844+867.429L324.255+867.429L324.255+1005.97L287.699+1005.97L249.688+952.797L249.688+1005.97L206.277+1005.97L206.277+867.429Z" opacity="1" fill="#1037a7"/>
<path d="M329.794+867.429L366.143+867.429L404.361+920.81L404.361+867.429L447.772+867.429L447.772+1005.97L411.216+1005.97L373.205+952.797L373.205+1005.97L329.794+1005.97L329.794+867.429Z" opacity="1" fill="#1037a7"/>
<path d="M453.311+867.429L534.94+867.429L534.94+903.778L497.553+903.778L497.553+919.148L534.317+919.148L534.317+953.628L497.553+953.628L497.553+969.621L536.394+969.621L536.394+1005.97L453.311+1005.97L453.311+867.429Z" opacity="1" fill="#1037a7"/>
<path d="M581.674+867.429L614.907+867.429L667.457+1005.97L623.839+1005.97L619.269+993.508L577.312+993.508L572.743+1005.97L529.124+1005.97L581.674+867.429ZM607.638+962.975L598.291+938.673L588.944+962.975L607.638+962.975Z" opacity="1" fill="#1037a7"/>
<path d="M660.188+867.429L707.96+867.429C716.823+867.429+725.027+868.606+732.574+870.96C740.121+873.314+746.663+876.776+752.202+881.345C757.741+885.915+762.068+891.558+765.184+898.274C768.3+904.989+769.857+912.709+769.857+921.433C769.857+928.357+768.888+934.242+766.949+939.088C765.011+943.935+762.865+947.95+760.51+951.135C757.741+954.735+754.625+957.782+751.164+960.274L777.127+1005.97L725.2+1005.97L704.429+970.867L704.429+1005.97L660.188+1005.97L660.188+867.429ZM704.429+935.557L706.714+935.557C711.976+935.557+716.442+934.38+720.111+932.026C723.781+929.672+725.616+925.726+725.616+920.187C725.616+914.648+723.781+910.701+720.111+908.347C716.442+905.993+711.976+904.816+706.714+904.816L704.429+904.816L704.429+935.557Z" opacity="1" fill="#1037a7"/>
<path d="M766.742+936.803C766.742+925.726+768.68+915.721+772.558+906.79C776.435+897.858+781.697+890.208+788.343+883.838C794.99+877.468+802.744+872.587+811.607+869.195C820.469+865.802+829.885+864.106+839.855+864.106C847.748+864.106+854.775+864.867+860.937+866.39C867.099+867.914+872.396+869.645+876.827+871.583C881.95+873.799+886.381+876.222+890.12+878.853L868.311+917.279C866.095+915.617+863.672+914.025+861.041+912.502C858.687+911.394+855.883+910.321+852.629+909.282C849.375+908.244+845.671+907.724+841.516+907.724C837.224+907.724+833.277+908.486+829.677+910.009C826.077+911.532+822.927+913.609+820.226+916.24C817.526+918.871+815.415+921.952+813.891+925.483C812.368+929.014+811.607+932.788+811.607+936.803C811.607+940.819+812.403+944.592+813.995+948.123C815.588+951.654+817.769+954.735+820.538+957.366C823.307+959.997+826.562+962.074+830.3+963.598C834.039+965.121+838.124+965.882+842.555+965.882C846.986+965.882+850.933+965.329+854.394+964.221C857.856+963.113+860.764+961.867+863.118+960.482C865.887+958.959+868.311+957.159+870.388+955.082L892.197+993.508C888.458+996.554+884.027+999.254+878.904+1001.61C874.473+1003.55+869.142+1005.35+862.91+1007.01C856.679+1008.67+849.548+1009.5+841.516+1009.5C830.716+1009.5+820.746+1007.74+811.607+1004.2C802.467+1000.67+794.575+995.723+787.928+989.353C781.281+982.984+776.089+975.333+772.35+966.402C768.611+957.47+766.742+947.604+766.742+936.803Z" opacity="1" fill="#1037a7"/>
<path d="M887.004+867.429L931.246+867.429L931.246+914.579L955.963+914.579L955.963+867.429L1000.41+867.429L1000.41+1005.97L955.963+1005.97L955.963+954.666L931.246+954.666L931.246+1005.97L887.004+1005.97L887.004+867.429Z" opacity="1" fill="#1037a7"/>
<path d="M1036.14+946.358L993.143+867.429L1042.37+867.429L1058.36+896.716L1074.15+867.429L1123.38+867.429L1080.38+946.358L1080.38+1005.97L1036.14+1005.97L1036.14+946.358Z" opacity="1" fill="#1037a7"/>
<path d="M441.397+1031.77L431.88+1076.65L445.13+1076.65C451.91+1076.65+457.353+1073.31+461.458+1066.62C463.698+1062.95+465.346+1058.58+466.403+1053.51C467.896+1046.51+467.943+1041.14+466.543+1037.39C465.144+1033.64+461.178+1031.77+454.647+1031.77L441.397+1031.77ZM469.949+1021.32C474.428+1022.9+477.709+1025.81+479.793+1030.04C481.472+1033.46+482.32+1037.16+482.335+1041.15C482.351+1045.13+481.986+1048.92+481.239+1052.53C479.28+1061.67+475.796+1069.42+470.789+1075.76C464.009+1084.32+455.424+1088.59+445.036+1088.59L415.412+1088.59L430.014+1019.83L459.639+1019.83C463.869+1019.89+467.305+1020.39+469.949+1021.32Z" opacity="1" fill="#d60029"/>
<path d="M497.568+1088.59L483.292+1088.59L497.894+1019.83L512.17+1019.83L497.568+1088.59Z" opacity="1" fill="#d60029"/>
<path d="M567.221+1041.29C567.127+1036.59+565.168+1033.31+561.342+1031.44C559.196+1030.42+556.677+1029.9+553.785+1029.9C548.249+1029.9+543.257+1031.99+538.809+1036.18C534.361+1040.36+531.236+1046.65+529.432+1055.05C527.659+1063.51+528.32+1069.5+531.415+1073.01C534.509+1076.52+538.514+1078.28+543.428+1078.28C548.249+1078.28+552.502+1076.89+556.187+1074.11C559.873+1071.32+562.54+1067.68+564.188+1063.17L548.28+1063.17L550.752+1051.69L579.397+1051.69L571.56+1088.59L562.042+1088.59L562.416+1080.01C558.932+1083.27+555.946+1085.58+553.458+1086.91C549.166+1089.25+544.252+1090.41+538.716+1090.41C529.603+1090.41+522.807+1087.25+518.328+1080.94C513.632+1074.6+512.45+1065.92+514.783+1054.91C517.146+1043.77+522.107+1034.85+529.665+1028.13C537.223+1021.41+546.04+1018.05+556.117+1018.05C564.857+1018.05+571.404+1020.27+575.758+1024.7C580.113+1029.13+581.979+1034.66+581.357+1041.29L567.221+1041.29Z" opacity="1" fill="#d60029"/>
<path d="M598.432+1088.59L584.156+1088.59L598.758+1019.83L613.034+1019.83L598.432+1088.59Z" opacity="1" fill="#d60029"/>
<path d="M676.389+1019.83L673.776+1032L653.202+1032L641.213+1088.59L626.75+1088.59L638.74+1032L618.073+1032L620.685+1019.83L676.389+1019.83Z" opacity="1" fill="#d60029"/>
<path d="M687.446+1062.61L704.894+1062.61L702.048+1035.55L687.446+1062.61ZM697.43+1019.83L713.665+1019.83L723.415+1088.59L707.833+1088.59L706.387+1074.46L681.054+1074.46L673.31+1088.59L658.288+1088.59L697.43+1019.83Z" opacity="1" fill="#d60029"/>
<path d="M746.742+1019.83L761.111+1019.83L749.121+1076.23L783.178+1076.23L780.565+1088.59L732.139+1088.59L746.742+1019.83Z" opacity="1" fill="#d60029"/>
</g>
<g id="Black" vectornator:layerName="Black">
<path d="M589.591+181.864C439.887+181.864+318.528+303.716+318.528+454.028C318.528+513.234+337.411+567.972+369.383+612.639L392.53+564.75C374.236+531.998+363.765+494.252+363.765+454.028C363.765+328.8+464.87+227.281+589.591+227.281C714.313+227.281+815.418+328.8+815.418+454.028C815.418+579.257+714.313+680.776+589.591+680.776C551.518+680.776+515.663+671.28+484.195+654.573L465.858+696.147C502.965+715.306+544.994+726.193+589.591+726.193C739.296+726.193+860.655+604.341+860.655+454.028C860.655+303.716+739.296+181.864+589.591+181.864Z" opacity="1" fill="#000000"/>
<path stroke="#000000" stroke-opacity="0" stroke-width="36.85" d="M635.321+101.556L564.532+247.83C461.583+260.393+381.831+348.031+381.831+454.374C381.831+468.603+383.246+482.5+385.966+495.926C385.987+496.032+386.011+496.135+386.033+496.241C390.973+520.166+399.672+542.719+412.056+562.872L362.752+672.223L423.562+752.405L476.44+628.806C509.102+650.113+548.085+662.537+589.994+662.537C607.205+662.537+623.908+660.385+639.905+656.447C639.921+656.443+639.934+656.429+639.95+656.425C667.425+649.576+692.912+637.509+714.851+620.963C714.859+620.957+714.865+620.947+714.873+620.941C754.297+591.344+782.837+548.072+793.527+498.173L890.923+480.218L927.559+379.204L793.055+408.575C782.194+360.231+754.548+318.266+716.514+289.112L717.053+101.736L635.321+101.556ZM640.399+246.639L640.467+423.407L716.199+405.407L716.424+327.315C740.121+350.895+757.204+381.092+764.807+414.868L547.431+463.184L640.399+246.639ZM549.004+279.898L450.799+482.825L414.348+490.196C411.999+478.617+410.753+466.647+410.753+454.374C410.753+369.494+469.778+298.445+549.004+279.898ZM762.223+503.949C753.492+534.334+736.971+561.403+714.918+582.85L714.986+512.668L762.223+503.949ZM310.391+511.792L273.131+519.365L326.481+564.153C319.521+547.439+314.104+529.936+310.391+511.792ZM639.77+523.455L639.882+626.536C624.04+631.12+607.313+633.615+589.994+633.615C552.101+633.615+516.963+621.838+488.013+601.772L511.857+546.062L639.77+523.455Z" fill="#000000" stroke-linecap="butt" opacity="1" stroke-linejoin="round"/>
<path d="M127.764+867.429L160.997+867.429L213.547+1005.97L169.928+1005.97L165.359+993.508L123.402+993.508L118.832+1005.97L75.2138+1005.97L127.764+867.429ZM153.727+962.975L144.38+938.673L135.034+962.975L153.727+962.975Z" opacity="1" fill="#000000"/>
<path d="M206.277+867.429L242.626+867.429L280.844+920.81L280.844+867.429L324.255+867.429L324.255+1005.97L287.699+1005.97L249.688+952.797L249.688+1005.97L206.277+1005.97L206.277+867.429Z" opacity="1" fill="#000000"/>
<path d="M329.794+867.429L366.143+867.429L404.361+920.81L404.361+867.429L447.772+867.429L447.772+1005.97L411.216+1005.97L373.205+952.797L373.205+1005.97L329.794+1005.97L329.794+867.429Z" opacity="1" fill="#000000"/>
<path d="M453.311+867.429L534.94+867.429L534.94+903.778L497.553+903.778L497.553+919.148L534.317+919.148L534.317+953.628L497.553+953.628L497.553+969.621L536.394+969.621L536.394+1005.97L453.311+1005.97L453.311+867.429Z" opacity="1" fill="#000000"/>
<path d="M581.674+867.429L614.907+867.429L667.457+1005.97L623.839+1005.97L619.269+993.508L577.312+993.508L572.743+1005.97L529.124+1005.97L581.674+867.429ZM607.638+962.975L598.291+938.673L588.944+962.975L607.638+962.975Z" opacity="1" fill="#000000"/>
<path d="M660.188+867.429L707.96+867.429C716.823+867.429+725.027+868.606+732.574+870.96C740.121+873.314+746.663+876.776+752.202+881.345C757.741+885.915+762.068+891.558+765.184+898.274C768.3+904.989+769.857+912.709+769.857+921.433C769.857+928.357+768.888+934.242+766.949+939.088C765.011+943.935+762.865+947.95+760.51+951.135C757.741+954.735+754.625+957.782+751.164+960.274L777.127+1005.97L725.2+1005.97L704.429+970.867L704.429+1005.97L660.188+1005.97L660.188+867.429ZM704.429+935.557L706.714+935.557C711.976+935.557+716.442+934.38+720.111+932.026C723.781+929.672+725.616+925.726+725.616+920.187C725.616+914.648+723.781+910.701+720.111+908.347C716.442+905.993+711.976+904.816+706.714+904.816L704.429+904.816L704.429+935.557Z" opacity="1" fill="#000000"/>
<path d="M766.742+936.803C766.742+925.726+768.68+915.721+772.558+906.79C776.435+897.858+781.697+890.208+788.343+883.838C794.99+877.468+802.744+872.587+811.607+869.195C820.469+865.802+829.885+864.106+839.855+864.106C847.748+864.106+854.775+864.867+860.937+866.39C867.099+867.914+872.396+869.645+876.827+871.583C881.95+873.799+886.381+876.222+890.12+878.853L868.311+917.279C866.095+915.617+863.672+914.025+861.041+912.502C858.687+911.394+855.883+910.321+852.629+909.282C849.375+908.244+845.671+907.724+841.516+907.724C837.224+907.724+833.277+908.486+829.677+910.009C826.077+911.532+822.927+913.609+820.226+916.24C817.526+918.871+815.415+921.952+813.891+925.483C812.368+929.014+811.607+932.788+811.607+936.803C811.607+940.819+812.403+944.592+813.995+948.123C815.588+951.654+817.769+954.735+820.538+957.366C823.307+959.997+826.562+962.074+830.3+963.598C834.039+965.121+838.124+965.882+842.555+965.882C846.986+965.882+850.933+965.329+854.394+964.221C857.856+963.113+860.764+961.867+863.118+960.482C865.887+958.959+868.311+957.159+870.388+955.082L892.197+993.508C888.458+996.554+884.027+999.254+878.904+1001.61C874.473+1003.55+869.142+1005.35+862.91+1007.01C856.679+1008.67+849.548+1009.5+841.516+1009.5C830.716+1009.5+820.746+1007.74+811.607+1004.2C802.467+1000.67+794.575+995.723+787.928+989.353C781.281+982.984+776.089+975.333+772.35+966.402C768.611+957.47+766.742+947.604+766.742+936.803Z" opacity="1" fill="#000000"/>
<path d="M887.004+867.429L931.246+867.429L931.246+914.579L955.963+914.579L955.963+867.429L1000.41+867.429L1000.41+1005.97L955.963+1005.97L955.963+954.666L931.246+954.666L931.246+1005.97L887.004+1005.97L887.004+867.429Z" opacity="1" fill="#000000"/>
<path d="M1036.14+946.358L993.143+867.429L1042.37+867.429L1058.36+896.716L1074.15+867.429L1123.38+867.429L1080.38+946.358L1080.38+1005.97L1036.14+1005.97L1036.14+946.358Z" opacity="1" fill="#000000"/>
<path d="M441.397+1031.77L431.88+1076.65L445.13+1076.65C451.91+1076.65+457.353+1073.31+461.458+1066.62C463.698+1062.95+465.346+1058.58+466.403+1053.51C467.896+1046.51+467.943+1041.14+466.543+1037.39C465.144+1033.64+461.178+1031.77+454.647+1031.77L441.397+1031.77ZM469.949+1021.32C474.428+1022.9+477.709+1025.81+479.793+1030.04C481.472+1033.46+482.32+1037.16+482.335+1041.15C482.351+1045.13+481.986+1048.92+481.239+1052.53C479.28+1061.67+475.796+1069.42+470.789+1075.76C464.009+1084.32+455.424+1088.59+445.036+1088.59L415.412+1088.59L430.014+1019.83L459.639+1019.83C463.869+1019.89+467.305+1020.39+469.949+1021.32Z" opacity="1" fill="#000000"/>
<path d="M497.568+1088.59L483.292+1088.59L497.894+1019.83L512.17+1019.83L497.568+1088.59Z" opacity="1" fill="#000000"/>
<path d="M567.221+1041.29C567.127+1036.59+565.168+1033.31+561.342+1031.44C559.196+1030.42+556.677+1029.9+553.785+1029.9C548.249+1029.9+543.257+1031.99+538.809+1036.18C534.361+1040.36+531.236+1046.65+529.432+1055.05C527.659+1063.51+528.32+1069.5+531.415+1073.01C534.509+1076.52+538.514+1078.28+543.428+1078.28C548.249+1078.28+552.502+1076.89+556.187+1074.11C559.873+1071.32+562.54+1067.68+564.188+1063.17L548.28+1063.17L550.752+1051.69L579.397+1051.69L571.56+1088.59L562.042+1088.59L562.416+1080.01C558.932+1083.27+555.946+1085.58+553.458+1086.91C549.166+1089.25+544.252+1090.41+538.716+1090.41C529.603+1090.41+522.807+1087.25+518.328+1080.94C513.632+1074.6+512.45+1065.92+514.783+1054.91C517.146+1043.77+522.107+1034.85+529.665+1028.13C537.223+1021.41+546.04+1018.05+556.117+1018.05C564.857+1018.05+571.404+1020.27+575.758+1024.7C580.113+1029.13+581.979+1034.66+581.357+1041.29L567.221+1041.29Z" opacity="1" fill="#000000"/>
<path d="M598.432+1088.59L584.156+1088.59L598.758+1019.83L613.034+1019.83L598.432+1088.59Z" opacity="1" fill="#000000"/>
<path d="M676.389+1019.83L673.776+1032L653.202+1032L641.213+1088.59L626.75+1088.59L638.74+1032L618.073+1032L620.685+1019.83L676.389+1019.83Z" opacity="1" fill="#000000"/>
<path d="M687.446+1062.61L704.894+1062.61L702.048+1035.55L687.446+1062.61ZM697.43+1019.83L713.665+1019.83L723.415+1088.59L707.833+1088.59L706.387+1074.46L681.054+1074.46L673.31+1088.59L658.288+1088.59L697.43+1019.83Z" opacity="1" fill="#000000"/>
<path d="M746.742+1019.83L761.111+1019.83L749.121+1076.23L783.178+1076.23L780.565+1088.59L732.139+1088.59L746.742+1019.83Z" opacity="1" fill="#000000"/>
</g>
</svg>
