<?xml version="1.0" encoding="UTF-8" standalone="no"?> <!-- Created with Vectornator for iOS (http://vectornator.io/) --><!DOCTYPE svg PUBLIC "-//W3C//DTD SVG 1.1//EN" "http://www.w3.org/Graphics/SVG/1.1/DTD/svg11.dtd">
<svg style="fill-rule:evenodd;clip-rule:evenodd;stroke-linecap:round;stroke-linejoin:round;" xmlns:vectornator="http://vectornator.io" xmlns:xlink="http://www.w3.org/1999/xlink" xmlns="http://www.w3.org/2000/svg" xml:space="preserve" version="1.1" viewBox="0 0 1200 1200">
<metadata>
<vectornator:setting key="DimensionsVisible" value="1"/>
<vectornator:setting key="New" value="1"/>
<vectornator:setting key="SnapToPoints" value="0"/>
<vectornator:setting key="GuidesVisible" value="1"/>
<vectornator:setting key="RulersVisible" value="1"/>
<vectornator:setting key="CMYKEnabledKey" value="0"/>
<vectornator:setting key="SnapToEdges" value="0"/>
<vectornator:setting key="DisplayWhiteBackground" value="0"/>
<vectornator:setting key="SnapToGuides" value="1"/>
<vectornator:setting key="GridSpacing" value="36"/>
<vectornator:setting key="Units" value="Pixels"/>
<vectornator:setting key="DynamicGuides" value="0"/>
<vectornator:setting key="SnapToGrid" value="0"/>
</metadata>
<defs>
<linearGradient y1="408.795" id="LinearGradient" x1="219.668" y2="408.795" x2="677.914" gradientUnits="userSpaceOnUse" gradientTransform="matrix(1 0 0 1 0 0)">
<stop stop-color="#900208" offset="0"/>
<stop stop-color="#f10063" offset="1"/>
</linearGradient>
<linearGradient y1="385.932" id="LinearGradient_2" x1="181.295" y2="385.932" x2="734.466" gradientUnits="userSpaceOnUse" gradientTransform="matrix(1 0 0 1 0 0)">
<stop stop-color="#05082f" offset="0"/>
<stop stop-color="#006ec6" offset="0.996738"/>
</linearGradient>
<radialGradient cx="1742.27" r="1079.27" id="RadialGradient" gradientUnits="userSpaceOnUse" gradientTransform="matrix(1 0 0 1 0 0)" cy="267.237">
<stop stop-color="#05082f" offset="0"/>
<stop stop-color="#006ec6" offset="0.996738"/>
</radialGradient>
<radialGradient cx="1742.27" r="1079.27" id="RadialGradient_2" gradientUnits="userSpaceOnUse" gradientTransform="matrix(1 0 0 1 0 0)" cy="267.237">
<stop stop-color="#05082f" offset="0"/>
<stop stop-color="#006ec6" offset="0.996738"/>
</radialGradient>
<radialGradient cx="1742.27" r="1079.27" id="RadialGradient_3" gradientUnits="userSpaceOnUse" gradientTransform="matrix(1 0 0 1 2 0)" cy="267.237">
<stop stop-color="#05082f" offset="0"/>
<stop stop-color="#006ec6" offset="0.996738"/>
</radialGradient>
<radialGradient cx="1742.27" r="1079.27" id="RadialGradient_4" gradientUnits="userSpaceOnUse" gradientTransform="matrix(1 0 0 1 4 0)" cy="267.237">
<stop stop-color="#05082f" offset="0"/>
<stop stop-color="#006ec6" offset="0.996738"/>
</radialGradient>
<radialGradient cx="1742.27" r="1079.27" id="RadialGradient_5" gradientUnits="userSpaceOnUse" gradientTransform="matrix(1 0 0 1 4 0)" cy="267.237">
<stop stop-color="#05082f" offset="0"/>
<stop stop-color="#006ec6" offset="0.996738"/>
</radialGradient>
<radialGradient cx="1742.27" r="1079.27" id="RadialGradient_6" gradientUnits="userSpaceOnUse" gradientTransform="matrix(1 0 0 1 4 0)" cy="267.237">
<stop stop-color="#05082f" offset="0"/>
<stop stop-color="#006ec6" offset="0.996738"/>
</radialGradient>
<radialGradient cx="1742.27" r="1079.27" id="RadialGradient_7" gradientUnits="userSpaceOnUse" gradientTransform="matrix(1 0 0 1 4 0)" cy="267.237">
<stop stop-color="#05082f" offset="0"/>
<stop stop-color="#006ec6" offset="0.996738"/>
</radialGradient>
<radialGradient cx="1742.27" r="1079.27" id="RadialGradient_8" gradientUnits="userSpaceOnUse" gradientTransform="matrix(1 0 0 1 4 0)" cy="267.237">
<stop stop-color="#05082f" offset="0"/>
<stop stop-color="#006ec6" offset="0.996738"/>
</radialGradient>
<radialGradient cx="1742.27" r="1079.27" id="RadialGradient_9" gradientUnits="userSpaceOnUse" gradientTransform="matrix(1 0 0 1 4 0)" cy="267.237">
<stop stop-color="#05082f" offset="0"/>
<stop stop-color="#006ec6" offset="0.996738"/>
</radialGradient>
</defs>
<g id="Color" vectornator:layerName="Color" visibility="hidden">
<path stroke="#000000" stroke-opacity="0" stroke-width="36.85" d="M448.791+178.742C322.249+178.742+219.668+281.74+219.668+408.795C219.668+458.84+235.629+505.109+262.655+542.865L282.22+502.386C266.756+474.701+257.906+442.795+257.906+408.795C257.906+302.943+343.367+217.131+448.791+217.131C554.215+217.131+639.676+302.943+639.676+408.795C639.676+514.648+554.215+600.459+448.791+600.459C416.608+600.459+386.301+592.433+359.702+578.311L344.202+613.452C375.568+629.647+411.094+638.849+448.791+638.849C575.332+638.849+677.914+535.851+677.914+408.795C677.914+281.74+575.332+178.742+448.791+178.742Z" fill="url(#LinearGradient)" stroke-linecap="butt" opacity="1" stroke-linejoin="round"/>
<path stroke="#000000" stroke-opacity="0" stroke-width="36.85" d="M487.444+110.86L427.609+234.501C340.589+245.12+273.176+319.199+273.176+409.088C273.176+421.115+274.373+432.862+276.671+444.21C276.689+444.3+276.71+444.387+276.728+444.476C280.904+464.7+288.257+483.763+298.725+500.798L257.049+593.23L308.45+661.005L353.147+556.53C380.755+574.541+413.706+585.043+449.131+585.043C463.679+585.043+477.798+583.223+491.319+579.895C491.333+579.891+491.344+579.879+491.357+579.876C514.582+574.087+536.125+563.887+554.669+549.901C554.676+549.896+554.681+549.887+554.688+549.882C588.012+524.864+612.136+488.288+621.172+446.11L703.498+430.933L734.467+345.548L620.773+370.375C611.593+329.511+588.224+294.039+556.075+269.395L556.531+111.012L487.444+110.86ZM491.737+233.494L491.794+382.912L555.809+367.697L555.999+301.688C576.029+321.619+590.469+347.144+596.896+375.694L413.153+416.534L491.737+233.494ZM414.483+261.607L331.473+433.136L300.662+439.367C298.676+429.579+297.623+419.461+297.623+409.088C297.623+337.34+347.516+277.285+414.483+261.607ZM594.712+450.992C587.332+476.676+573.367+499.556+554.726+517.685L554.783+458.362L594.712+450.992ZM212.789+457.621L181.295+464.023L226.39+501.881C220.507+487.753+215.928+472.958+212.789+457.621ZM491.206+467.48L491.3+554.612C477.909+558.486+463.77+560.595+449.131+560.595C417.101+560.595+387.4+550.64+362.929+533.679L383.083+486.589L491.206+467.48Z" fill="url(#LinearGradient_2)" stroke-linecap="butt" opacity="1" stroke-linejoin="round"/>
<path d="M794.403+261.741L842.403+261.741L918.303+461.841L855.303+461.841L848.703+443.841L788.103+443.841L781.503+461.841L718.503+461.841L794.403+261.741ZM831.903+399.741L818.403+364.641L804.903+399.741L831.903+399.741Z" opacity="1" fill="url(#RadialGradient)"/>
<path d="M907.803+261.741L960.303+261.741L1015.5+338.841L1015.5+261.741L1078.2+261.741L1078.2+461.841L1025.4+461.841L970.503+385.041L970.503+461.841L907.803+461.841L907.803+261.741Z" opacity="1" fill="url(#RadialGradient_2)"/>
<path d="M1086.2+261.741L1138.7+261.741L1193.9+338.841L1193.9+261.741L1256.6+261.741L1256.6+461.841L1203.8+461.841L1148.9+385.041L1148.9+461.841L1086.2+461.841L1086.2+261.741Z" opacity="1" fill="url(#RadialGradient_3)"/>
<path d="M1264.6+261.741L1382.5+261.741L1382.5+314.241L1328.5+314.241L1328.5+336.441L1381.6+336.441L1381.6+386.241L1328.5+386.241L1328.5+409.341L1384.6+409.341L1384.6+461.841L1264.6+461.841L1264.6+261.741Z" opacity="1" fill="url(#RadialGradient_4)"/>
<path d="M1450+261.741L1498+261.741L1573.9+461.841L1510.9+461.841L1504.3+443.841L1443.7+443.841L1437.1+461.841L1374.1+461.841L1450+261.741ZM1487.5+399.741L1474+364.641L1460.5+399.741L1487.5+399.741Z" opacity="1" fill="url(#RadialGradient_5)"/>
<path d="M1563.4+261.741L1632.4+261.741C1645.2+261.741+1657.05+263.441+1667.95+266.841C1678.85+270.241+1688.3+275.241+1696.3+281.841C1704.3+288.441+1710.55+296.591+1715.05+306.291C1719.55+315.991+1721.8+327.141+1721.8+339.741C1721.8+349.741+1720.4+358.241+1717.6+365.241C1714.8+372.241+1711.7+378.041+1708.3+382.641C1704.3+387.841+1699.8+392.241+1694.8+395.841L1732.3+461.841L1657.3+461.841L1627.3+411.141L1627.3+461.841L1563.4+461.841L1563.4+261.741ZM1627.3+360.141L1630.6+360.141C1638.2+360.141+1644.65+358.441+1649.95+355.041C1655.25+351.641+1657.9+345.941+1657.9+337.941C1657.9+329.941+1655.25+324.241+1649.95+320.841C1644.65+317.441+1638.2+315.741+1630.6+315.741L1627.3+315.741L1627.3+360.141Z" opacity="1" fill="url(#RadialGradient_6)"/>
<path d="M1717.3+361.941C1717.3+345.941+1720.1+331.491+1725.7+318.591C1731.3+305.691+1738.9+294.641+1748.5+285.441C1758.1+276.241+1769.3+269.191+1782.1+264.291C1794.9+259.391+1808.5+256.941+1822.9+256.941C1834.3+256.941+1844.45+258.041+1853.35+260.241C1862.25+262.441+1869.9+264.941+1876.3+267.741C1883.7+270.941+1890.1+274.441+1895.5+278.241L1864+333.741C1860.8+331.341+1857.3+329.041+1853.5+326.841C1850.1+325.241+1846.05+323.691+1841.35+322.191C1836.65+320.691+1831.3+319.941+1825.3+319.941C1819.1+319.941+1813.4+321.041+1808.2+323.241C1803+325.441+1798.45+328.441+1794.55+332.241C1790.65+336.041+1787.6+340.491+1785.4+345.591C1783.2+350.691+1782.1+356.141+1782.1+361.941C1782.1+367.741+1783.25+373.191+1785.55+378.291C1787.85+383.391+1791+387.841+1795+391.641C1799+395.441+1803.7+398.441+1809.1+400.641C1814.5+402.841+1820.4+403.941+1826.8+403.941C1833.2+403.941+1838.9+403.141+1843.9+401.541C1848.9+399.941+1853.1+398.141+1856.5+396.141C1860.5+393.941+1864+391.341+1867+388.341L1898.5+443.841C1893.1+448.241+1886.7+452.141+1879.3+455.541C1872.9+458.341+1865.2+460.941+1856.2+463.341C1847.2+465.741+1836.9+466.941+1825.3+466.941C1809.7+466.941+1795.3+464.391+1782.1+459.291C1768.9+454.191+1757.5+447.041+1747.9+437.841C1738.3+428.641+1730.8+417.591+1725.4+404.691C1720+391.791+1717.3+377.541+1717.3+361.941Z" opacity="1" fill="url(#RadialGradient_7)"/>
<path d="M1891+261.741L1954.9+261.741L1954.9+329.841L1990.6+329.841L1990.6+261.741L2054.8+261.741L2054.8+461.841L1990.6+461.841L1990.6+387.741L1954.9+387.741L1954.9+461.841L1891+461.841L1891+261.741Z" opacity="1" fill="url(#RadialGradient_8)"/>
<path d="M2106.4+375.741L2044.3+261.741L2115.4+261.741L2138.5+304.041L2161.3+261.741L2232.4+261.741L2170.3+375.741L2170.3+461.841L2106.4+461.841L2106.4+375.741Z" opacity="1" fill="url(#RadialGradient_9)"/>
<path d="M848.469+499.103L834.723+563.925L853.86+563.925C863.653+563.925+871.514+559.096+877.444+549.438C880.678+544.137+883.059+537.826+884.586+530.503C886.742+520.396+886.81+512.636+884.788+507.223C882.767+501.809+877.039+499.103+867.606+499.103L848.469+499.103ZM889.707+484.009C896.176+486.3+900.915+490.5+903.925+496.61C906.351+501.551+907.575+506.897+907.597+512.647C907.62+518.397+907.092+523.877+906.014+529.088C903.184+542.295+898.153+553.481+890.92+562.645C881.127+574.998+868.729+581.175+853.725+581.175L810.937+581.175L832.028+481.853L874.816+481.853C880.925+481.943+885.889+482.662+889.707+484.009Z" opacity="1" fill="#d60029"/>
<path d="M929.598+581.175L908.979+581.175L930.069+481.853L950.689+481.853L929.598+581.175Z" opacity="1" fill="#d60029"/>
<path d="M1030.2+512.849C1030.07+506.066+1027.24+501.327+1021.71+498.631C1018.61+497.149+1014.97+496.408+1010.79+496.408C1002.8+496.408+995.588+499.429+989.164+505.471C982.74+511.513+978.226+520.598+975.62+532.727C973.06+544.946+974.014+553.593+978.484+558.669C982.954+563.746+988.737+566.284+995.835+566.284C1002.8+566.284+1008.94+564.273+1014.26+560.253C1019.59+556.232+1023.44+550.965+1025.82+544.452L1002.84+544.452L1006.41+527.875L1047.79+527.875L1036.47+581.175L1022.72+581.175L1023.26+568.777C1018.23+573.494+1013.92+576.818+1010.32+578.749C1004.12+582.119+997.026+583.803+989.029+583.803C975.867+583.803+966.052+579.244+959.583+570.124C952.8+560.96+951.093+548.427+954.462+532.525C957.876+516.443+965.041+503.55+975.957+493.847C986.873+484.144+999.609+479.292+1014.16+479.292C1026.79+479.292+1036.24+482.493+1042.53+488.894C1048.82+495.296+1051.52+503.281+1050.62+512.849L1030.2+512.849Z" opacity="1" fill="#d60029"/>
<path d="M1075.28+581.175L1054.66+581.175L1075.75+481.853L1096.37+481.853L1075.28+581.175Z" opacity="1" fill="#d60029"/>
<path d="M1187.88+481.853L1184.1+499.44L1154.39+499.44L1137.07+581.175L1116.18+581.175L1133.5+499.44L1103.65+499.44L1107.42+481.853L1187.88+481.853Z" opacity="1" fill="#d60029"/>
<path d="M1203.85+543.643L1229.05+543.643L1224.94+504.561L1203.85+543.643ZM1218.27+481.853L1241.72+481.853L1255.8+581.175L1233.29+581.175L1231.2+560.758L1194.61+560.758L1183.43+581.175L1161.73+581.175L1218.27+481.853Z" opacity="1" fill="#d60029"/>
<path d="M1289.49+481.853L1310.24+481.853L1292.93+563.319L1342.12+563.319L1338.34+581.175L1268.4+581.175L1289.49+481.853Z" opacity="1" fill="#d60029"/>
</g>
<g id="Flat" vectornator:layerName="Flat">
<path d="M589.591+181.864C439.887+181.864+318.528+303.716+318.528+454.028C318.528+513.234+337.411+567.972+369.383+612.639L392.53+564.75C374.236+531.998+363.765+494.252+363.765+454.028C363.765+328.8+464.87+227.281+589.591+227.281C714.313+227.281+815.418+328.8+815.418+454.028C815.418+579.257+714.313+680.776+589.591+680.776C551.518+680.776+515.663+671.28+484.195+654.573L465.858+696.147C502.965+715.306+544.994+726.193+589.591+726.193C739.296+726.193+860.655+604.341+860.655+454.028C860.655+303.716+739.296+181.864+589.591+181.864Z" opacity="1" fill="#d60029"/>
<path stroke="#000000" stroke-opacity="0" stroke-width="36.85" d="M635.321+101.556L564.532+247.83C461.583+260.393+381.831+348.031+381.831+454.374C381.831+468.603+383.246+482.5+385.966+495.926C385.987+496.032+386.011+496.135+386.033+496.241C390.973+520.166+399.672+542.719+412.056+562.872L362.752+672.223L423.562+752.405L476.44+628.806C509.102+650.113+548.085+662.537+589.994+662.537C607.205+662.537+623.908+660.385+639.905+656.447C639.921+656.443+639.934+656.429+639.95+656.425C667.425+649.576+692.912+637.509+714.851+620.963C714.859+620.957+714.865+620.947+714.873+620.941C754.297+591.344+782.837+548.072+793.527+498.173L890.923+480.218L927.559+379.204L793.055+408.575C782.194+360.231+754.548+318.266+716.514+289.112L717.053+101.736L635.321+101.556ZM640.399+246.639L640.467+423.407L716.199+405.407L716.424+327.315C740.121+350.895+757.204+381.092+764.807+414.868L547.431+463.184L640.399+246.639ZM549.004+279.898L450.799+482.825L414.348+490.196C411.999+478.617+410.753+466.647+410.753+454.374C410.753+369.494+469.778+298.445+549.004+279.898ZM762.223+503.949C753.492+534.334+736.971+561.403+714.918+582.85L714.986+512.668L762.223+503.949ZM310.391+511.792L273.131+519.365L326.481+564.153C319.521+547.439+314.104+529.936+310.391+511.792ZM639.77+523.455L639.882+626.536C624.04+631.12+607.313+633.615+589.994+633.615C552.101+633.615+516.963+621.838+488.013+601.772L511.857+546.062L639.77+523.455Z" fill="#0a32a1" stroke-linecap="butt" opacity="1" stroke-linejoin="round"/>
<path d="M127.764+867.429L160.997+867.429L213.547+1005.97L169.928+1005.97L165.359+993.508L123.402+993.508L118.832+1005.97L75.2138+1005.97L127.764+867.429ZM153.727+962.975L144.38+938.673L135.034+962.975L153.727+962.975Z" opacity="1" fill="#1037a7"/>
<path d="M206.277+867.429L242.626+867.429L280.844+920.81L280.844+867.429L324.255+867.429L324.255+1005.97L287.699+1005.97L249.688+952.797L249.688+1005.97L206.277+1005.97L206.277+867.429Z" opacity="1" fill="#1037a7"/>
<path d="M329.794+867.429L366.143+867.429L404.361+920.81L404.361+867.429L447.772+867.429L447.772+1005.97L411.216+1005.97L373.205+952.797L373.205+1005.97L329.794+1005.97L329.794+867.429Z" opacity="1" fill="#1037a7"/>
<path d="M453.311+867.429L534.94+867.429L534.94+903.778L497.553+903.778L497.553+919.148L534.317+919.148L534.317+953.628L497.553+953.628L497.553+969.621L536.394+969.621L536.394+1005.97L453.311+1005.97L453.311+867.429Z" opacity="1" fill="#1037a7"/>
<path d="M581.674+867.429L614.907+867.429L667.457+1005.97L623.839+1005.97L619.269+993.508L577.312+993.508L572.743+1005.97L529.124+1005.97L581.674+867.429ZM607.638+962.975L598.291+938.673L588.944+962.975L607.638+962.975Z" opacity="1" fill="#1037a7"/>
<path d="M660.188+867.429L707.96+867.429C716.823+867.429+725.027+868.606+732.574+870.96C740.121+873.314+746.663+876.776+752.202+881.345C757.741+885.915+762.068+891.558+765.184+898.274C768.3+904.989+769.857+912.709+769.857+921.433C769.857+928.357+768.888+934.242+766.949+939.088C765.011+943.935+762.865+947.95+760.51+951.135C757.741+954.735+754.625+957.782+751.164+960.274L777.127+1005.97L725.2+1005.97L704.429+970.867L704.429+1005.97L660.188+1005.97L660.188+867.429ZM704.429+935.557L706.714+935.557C711.976+935.557+716.442+934.38+720.111+932.026C723.781+929.672+725.616+925.726+725.616+920.187C725.616+914.648+723.781+910.701+720.111+908.347C716.442+905.993+711.976+904.816+706.714+904.816L704.429+904.816L704.429+935.557Z" opacity="1" fill="#1037a7"/>
<path d="M766.742+936.803C766.742+925.726+768.68+915.721+772.558+906.79C776.435+897.858+781.697+890.208+788.343+883.838C794.99+877.468+802.744+872.587+811.607+869.195C820.469+865.802+829.885+864.106+839.855+864.106C847.748+864.106+854.775+864.867+860.937+866.39C867.099+867.914+872.396+869.645+876.827+871.583C881.95+873.799+886.381+876.222+890.12+878.853L868.311+917.279C866.095+915.617+863.672+914.025+861.041+912.502C858.687+911.394+855.883+910.321+852.629+909.282C849.375+908.244+845.671+907.724+841.516+907.724C837.224+907.724+833.277+908.486+829.677+910.009C826.077+911.532+822.927+913.609+820.226+916.24C817.526+918.871+815.415+921.952+813.891+925.483C812.368+929.014+811.607+932.788+811.607+936.803C811.607+940.819+812.403+944.592+813.995+948.123C815.588+951.654+817.769+954.735+820.538+957.366C823.307+959.997+826.562+962.074+830.3+963.598C834.039+965.121+838.124+965.882+842.555+965.882C846.986+965.882+850.933+965.329+854.394+964.221C857.856+963.113+860.764+961.867+863.118+960.482C865.887+958.959+868.311+957.159+870.388+955.082L892.197+993.508C888.458+996.554+884.027+999.254+878.904+1001.61C874.473+1003.55+869.142+1005.35+862.91+1007.01C856.679+1008.67+849.548+1009.5+841.516+1009.5C830.716+1009.5+820.746+1007.74+811.607+1004.2C802.467+1000.67+794.575+995.723+787.928+989.353C781.281+982.984+776.089+975.333+772.35+966.402C768.611+957.47+766.742+947.604+766.742+936.803Z" opacity="1" fill="#1037a7"/>
<path d="M887.004+867.429L931.246+867.429L931.246+914.579L955.963+914.579L955.963+867.429L1000.41+867.429L1000.41+1005.97L955.963+1005.97L955.963+954.666L931.246+954.666L931.246+1005.97L887.004+1005.97L887.004+867.429Z" opacity="1" fill="#1037a7"/>
<path d="M1036.14+946.358L993.143+867.429L1042.37+867.429L1058.36+896.716L1074.15+867.429L1123.38+867.429L1080.38+946.358L1080.38+1005.97L1036.14+1005.97L1036.14+946.358Z" opacity="1" fill="#1037a7"/>
<path d="M441.397+1031.77L431.88+1076.65L445.13+1076.65C451.91+1076.65+457.353+1073.31+461.458+1066.62C463.698+1062.95+465.346+1058.58+466.403+1053.51C467.896+1046.51+467.943+1041.14+466.543+1037.39C465.144+1033.64+461.178+1031.77+454.647+1031.77L441.397+1031.77ZM469.949+1021.32C474.428+1022.9+477.709+1025.81+479.793+1030.04C481.472+1033.46+482.32+1037.16+482.335+1041.15C482.351+1045.13+481.986+1048.92+481.239+1052.53C479.28+1061.67+475.796+1069.42+470.789+1075.76C464.009+1084.32+455.424+1088.59+445.036+1088.59L415.412+1088.59L430.014+1019.83L459.639+1019.83C463.869+1019.89+467.305+1020.39+469.949+1021.32Z" opacity="1" fill="#d60029"/>
<path d="M497.568+1088.59L483.292+1088.59L497.894+1019.83L512.17+1019.83L497.568+1088.59Z" opacity="1" fill="#d60029"/>
<path d="M567.221+1041.29C567.127+1036.59+565.168+1033.31+561.342+1031.44C559.196+1030.42+556.677+1029.9+553.785+1029.9C548.249+1029.9+543.257+1031.99+538.809+1036.18C534.361+1040.36+531.236+1046.65+529.432+1055.05C527.659+1063.51+528.32+1069.5+531.415+1073.01C534.509+1076.52+538.514+1078.28+543.428+1078.28C548.249+1078.28+552.502+1076.89+556.187+1074.11C559.873+1071.32+562.54+1067.68+564.188+1063.17L548.28+1063.17L550.752+1051.69L579.397+1051.69L571.56+1088.59L562.042+1088.59L562.416+1080.01C558.932+1083.27+555.946+1085.58+553.458+1086.91C549.166+1089.25+544.252+1090.41+538.716+1090.41C529.603+1090.41+522.807+1087.25+518.328+1080.94C513.632+1074.6+512.45+1065.92+514.783+1054.91C517.146+1043.77+522.107+1034.85+529.665+1028.13C537.223+1021.41+546.04+1018.05+556.117+1018.05C564.857+1018.05+571.404+1020.27+575.758+1024.7C580.113+1029.13+581.979+1034.66+581.357+1041.29L567.221+1041.29Z" opacity="1" fill="#d60029"/>
<path d="M598.432+1088.59L584.156+1088.59L598.758+1019.83L613.034+1019.83L598.432+1088.59Z" opacity="1" fill="#d60029"/>
<path d="M676.389+1019.83L673.776+1032L653.202+1032L641.213+1088.59L626.75+1088.59L638.74+1032L618.073+1032L620.685+1019.83L676.389+1019.83Z" opacity="1" fill="#d60029"/>
<path d="M687.446+1062.61L704.894+1062.61L702.048+1035.55L687.446+1062.61ZM697.43+1019.83L713.665+1019.83L723.415+1088.59L707.833+1088.59L706.387+1074.46L681.054+1074.46L673.31+1088.59L658.288+1088.59L697.43+1019.83Z" opacity="1" fill="#d60029"/>
<path d="M746.742+1019.83L761.111+1019.83L749.121+1076.23L783.178+1076.23L780.565+1088.59L732.139+1088.59L746.742+1019.83Z" opacity="1" fill="#d60029"/>
</g>
<g id="Black" vectornator:layerName="Black" visibility="hidden">
<path stroke="#000000" stroke-opacity="0" stroke-width="36.85" d="M448.791+178.742C322.249+178.742+219.668+281.74+219.668+408.795C219.668+458.84+235.629+505.109+262.655+542.865L282.22+502.386C266.756+474.701+257.906+442.795+257.906+408.795C257.906+302.943+343.367+217.131+448.791+217.131C554.215+217.131+639.676+302.943+639.676+408.795C639.676+514.648+554.215+600.459+448.791+600.459C416.608+600.459+386.301+592.433+359.702+578.311L344.202+613.452C375.568+629.647+411.094+638.849+448.791+638.849C575.332+638.849+677.914+535.851+677.914+408.795C677.914+281.74+575.332+178.742+448.791+178.742Z" fill="#000000" stroke-linecap="butt" opacity="1" stroke-linejoin="round"/>
<path stroke="#000000" stroke-opacity="0" stroke-width="36.85" d="M487.444+110.86L427.609+234.501C340.589+245.12+273.176+319.199+273.176+409.088C273.176+421.115+274.373+432.862+276.671+444.21C276.689+444.3+276.71+444.387+276.728+444.476C280.904+464.7+288.257+483.763+298.725+500.798L257.049+593.23L308.45+661.005L353.147+556.53C380.755+574.541+413.706+585.043+449.131+585.043C463.679+585.043+477.798+583.223+491.319+579.895C491.333+579.891+491.344+579.879+491.357+579.876C514.582+574.087+536.125+563.887+554.669+549.901C554.676+549.896+554.681+549.887+554.688+549.882C588.012+524.864+612.136+488.288+621.172+446.11L703.498+430.933L734.467+345.548L620.773+370.375C611.593+329.511+588.224+294.039+556.075+269.395L556.531+111.012L487.444+110.86ZM491.737+233.494L491.794+382.912L555.809+367.697L555.999+301.688C576.029+321.619+590.469+347.144+596.896+375.694L413.153+416.534L491.737+233.494ZM414.483+261.607L331.473+433.136L300.662+439.367C298.676+429.579+297.623+419.461+297.623+409.088C297.623+337.34+347.516+277.285+414.483+261.607ZM594.712+450.992C587.332+476.676+573.367+499.556+554.726+517.685L554.783+458.362L594.712+450.992ZM212.789+457.621L181.295+464.023L226.39+501.881C220.507+487.753+215.928+472.958+212.789+457.621ZM491.206+467.48L491.3+554.612C477.909+558.486+463.77+560.595+449.131+560.595C417.101+560.595+387.4+550.64+362.929+533.679L383.083+486.589L491.206+467.48Z" fill="#000000" stroke-linecap="butt" opacity="1" stroke-linejoin="round"/>
<path d="M794.403+261.741L842.403+261.741L918.303+461.841L855.303+461.841L848.703+443.841L788.103+443.841L781.503+461.841L718.503+461.841L794.403+261.741ZM831.903+399.741L818.403+364.641L804.903+399.741L831.903+399.741Z" opacity="1" fill="#000000"/>
<path d="M907.803+261.741L960.303+261.741L1015.5+338.841L1015.5+261.741L1078.2+261.741L1078.2+461.841L1025.4+461.841L970.503+385.041L970.503+461.841L907.803+461.841L907.803+261.741Z" opacity="1" fill="#000000"/>
<path d="M1086.2+261.741L1138.7+261.741L1193.9+338.841L1193.9+261.741L1256.6+261.741L1256.6+461.841L1203.8+461.841L1148.9+385.041L1148.9+461.841L1086.2+461.841L1086.2+261.741Z" opacity="1" fill="#000000"/>
<path d="M1264.6+261.741L1382.5+261.741L1382.5+314.241L1328.5+314.241L1328.5+336.441L1381.6+336.441L1381.6+386.241L1328.5+386.241L1328.5+409.341L1384.6+409.341L1384.6+461.841L1264.6+461.841L1264.6+261.741Z" opacity="1" fill="#000000"/>
<path d="M1450+261.741L1498+261.741L1573.9+461.841L1510.9+461.841L1504.3+443.841L1443.7+443.841L1437.1+461.841L1374.1+461.841L1450+261.741ZM1487.5+399.741L1474+364.641L1460.5+399.741L1487.5+399.741Z" opacity="1" fill="#000000"/>
<path d="M1563.4+261.741L1632.4+261.741C1645.2+261.741+1657.05+263.441+1667.95+266.841C1678.85+270.241+1688.3+275.241+1696.3+281.841C1704.3+288.441+1710.55+296.591+1715.05+306.291C1719.55+315.991+1721.8+327.141+1721.8+339.741C1721.8+349.741+1720.4+358.241+1717.6+365.241C1714.8+372.241+1711.7+378.041+1708.3+382.641C1704.3+387.841+1699.8+392.241+1694.8+395.841L1732.3+461.841L1657.3+461.841L1627.3+411.141L1627.3+461.841L1563.4+461.841L1563.4+261.741ZM1627.3+360.141L1630.6+360.141C1638.2+360.141+1644.65+358.441+1649.95+355.041C1655.25+351.641+1657.9+345.941+1657.9+337.941C1657.9+329.941+1655.25+324.241+1649.95+320.841C1644.65+317.441+1638.2+315.741+1630.6+315.741L1627.3+315.741L1627.3+360.141Z" opacity="1" fill="#000000"/>
<path d="M1717.3+361.941C1717.3+345.941+1720.1+331.491+1725.7+318.591C1731.3+305.691+1738.9+294.641+1748.5+285.441C1758.1+276.241+1769.3+269.191+1782.1+264.291C1794.9+259.391+1808.5+256.941+1822.9+256.941C1834.3+256.941+1844.45+258.041+1853.35+260.241C1862.25+262.441+1869.9+264.941+1876.3+267.741C1883.7+270.941+1890.1+274.441+1895.5+278.241L1864+333.741C1860.8+331.341+1857.3+329.041+1853.5+326.841C1850.1+325.241+1846.05+323.691+1841.35+322.191C1836.65+320.691+1831.3+319.941+1825.3+319.941C1819.1+319.941+1813.4+321.041+1808.2+323.241C1803+325.441+1798.45+328.441+1794.55+332.241C1790.65+336.041+1787.6+340.491+1785.4+345.591C1783.2+350.691+1782.1+356.141+1782.1+361.941C1782.1+367.741+1783.25+373.191+1785.55+378.291C1787.85+383.391+1791+387.841+1795+391.641C1799+395.441+1803.7+398.441+1809.1+400.641C1814.5+402.841+1820.4+403.941+1826.8+403.941C1833.2+403.941+1838.9+403.141+1843.9+401.541C1848.9+399.941+1853.1+398.141+1856.5+396.141C1860.5+393.941+1864+391.341+1867+388.341L1898.5+443.841C1893.1+448.241+1886.7+452.141+1879.3+455.541C1872.9+458.341+1865.2+460.941+1856.2+463.341C1847.2+465.741+1836.9+466.941+1825.3+466.941C1809.7+466.941+1795.3+464.391+1782.1+459.291C1768.9+454.191+1757.5+447.041+1747.9+437.841C1738.3+428.641+1730.8+417.591+1725.4+404.691C1720+391.791+1717.3+377.541+1717.3+361.941Z" opacity="1" fill="#000000"/>
<path d="M1891+261.741L1954.9+261.741L1954.9+329.841L1990.6+329.841L1990.6+261.741L2054.8+261.741L2054.8+461.841L1990.6+461.841L1990.6+387.741L1954.9+387.741L1954.9+461.841L1891+461.841L1891+261.741Z" opacity="1" fill="#000000"/>
<path d="M2106.4+375.741L2044.3+261.741L2115.4+261.741L2138.5+304.041L2161.3+261.741L2232.4+261.741L2170.3+375.741L2170.3+461.841L2106.4+461.841L2106.4+375.741Z" opacity="1" fill="#000000"/>
<path d="M848.469+499.103L834.723+563.925L853.86+563.925C863.653+563.925+871.514+559.096+877.444+549.438C880.678+544.137+883.059+537.826+884.586+530.503C886.742+520.396+886.81+512.636+884.788+507.223C882.767+501.809+877.039+499.103+867.606+499.103L848.469+499.103ZM889.707+484.009C896.176+486.3+900.915+490.5+903.925+496.61C906.351+501.551+907.575+506.897+907.597+512.647C907.62+518.397+907.092+523.877+906.014+529.088C903.184+542.295+898.153+553.481+890.92+562.645C881.127+574.998+868.729+581.175+853.725+581.175L810.937+581.175L832.028+481.853L874.816+481.853C880.925+481.943+885.889+482.662+889.707+484.009Z" opacity="1" fill="#000000"/>
<path d="M929.598+581.175L908.979+581.175L930.069+481.853L950.689+481.853L929.598+581.175Z" opacity="1" fill="#000000"/>
<path d="M1030.2+512.849C1030.07+506.066+1027.24+501.327+1021.71+498.631C1018.61+497.149+1014.97+496.408+1010.79+496.408C1002.8+496.408+995.588+499.429+989.164+505.471C982.74+511.513+978.226+520.598+975.62+532.727C973.06+544.946+974.014+553.593+978.484+558.669C982.954+563.746+988.737+566.284+995.835+566.284C1002.8+566.284+1008.94+564.273+1014.26+560.253C1019.59+556.232+1023.44+550.965+1025.82+544.452L1002.84+544.452L1006.41+527.875L1047.79+527.875L1036.47+581.175L1022.72+581.175L1023.26+568.777C1018.23+573.494+1013.92+576.818+1010.32+578.749C1004.12+582.119+997.026+583.803+989.029+583.803C975.867+583.803+966.052+579.244+959.583+570.124C952.8+560.96+951.093+548.427+954.462+532.525C957.876+516.443+965.041+503.55+975.957+493.847C986.873+484.144+999.609+479.292+1014.16+479.292C1026.79+479.292+1036.24+482.493+1042.53+488.894C1048.82+495.296+1051.52+503.281+1050.62+512.849L1030.2+512.849Z" opacity="1" fill="#000000"/>
<path d="M1075.28+581.175L1054.66+581.175L1075.75+481.853L1096.37+481.853L1075.28+581.175Z" opacity="1" fill="#000000"/>
<path d="M1187.88+481.853L1184.1+499.44L1154.39+499.44L1137.07+581.175L1116.18+581.175L1133.5+499.44L1103.65+499.44L1107.42+481.853L1187.88+481.853Z" opacity="1" fill="#000000"/>
<path d="M1203.85+543.643L1229.05+543.643L1224.94+504.561L1203.85+543.643ZM1218.27+481.853L1241.72+481.853L1255.8+581.175L1233.29+581.175L1231.2+560.758L1194.61+560.758L1183.43+581.175L1161.73+581.175L1218.27+481.853Z" opacity="1" fill="#000000"/>
<path d="M1289.49+481.853L1310.24+481.853L1292.93+563.319L1342.12+563.319L1338.34+581.175L1268.4+581.175L1289.49+481.853Z" opacity="1" fill="#000000"/>
</g>
<g id="White" vectornator:layerName="White" visibility="hidden">
<path stroke="#000000" stroke-opacity="0" stroke-width="36.85" d="M448.791+178.742C322.249+178.742+219.668+281.74+219.668+408.795C219.668+458.84+235.629+505.109+262.655+542.865L282.22+502.386C266.756+474.701+257.906+442.795+257.906+408.795C257.906+302.943+343.367+217.131+448.791+217.131C554.215+217.131+639.676+302.943+639.676+408.795C639.676+514.648+554.215+600.459+448.791+600.459C416.608+600.459+386.301+592.433+359.702+578.311L344.202+613.452C375.568+629.647+411.094+638.849+448.791+638.849C575.332+638.849+677.914+535.851+677.914+408.795C677.914+281.74+575.332+178.742+448.791+178.742Z" fill="#ffffff" stroke-linecap="butt" opacity="1" stroke-linejoin="round"/>
<path stroke="#000000" stroke-opacity="0" stroke-width="36.85" d="M487.444+110.86L427.609+234.501C340.589+245.12+273.176+319.199+273.176+409.088C273.176+421.115+274.373+432.862+276.671+444.21C276.689+444.3+276.71+444.387+276.728+444.476C280.904+464.7+288.257+483.763+298.725+500.798L257.049+593.23L308.45+661.005L353.147+556.53C380.755+574.541+413.706+585.043+449.131+585.043C463.679+585.043+477.798+583.223+491.319+579.895C491.333+579.891+491.344+579.879+491.357+579.876C514.582+574.087+536.125+563.887+554.669+549.901C554.676+549.896+554.681+549.887+554.688+549.882C588.012+524.864+612.136+488.288+621.172+446.11L703.498+430.933L734.467+345.548L620.773+370.375C611.593+329.511+588.224+294.039+556.075+269.395L556.531+111.012L487.444+110.86ZM491.737+233.494L491.794+382.912L555.809+367.697L555.999+301.688C576.029+321.619+590.469+347.144+596.896+375.694L413.153+416.534L491.737+233.494ZM414.483+261.607L331.473+433.136L300.662+439.367C298.676+429.579+297.623+419.461+297.623+409.088C297.623+337.34+347.516+277.285+414.483+261.607ZM594.712+450.992C587.332+476.676+573.367+499.556+554.726+517.685L554.783+458.362L594.712+450.992ZM212.789+457.621L181.295+464.023L226.39+501.881C220.507+487.753+215.928+472.958+212.789+457.621ZM491.206+467.48L491.3+554.612C477.909+558.486+463.77+560.595+449.131+560.595C417.101+560.595+387.4+550.64+362.929+533.679L383.083+486.589L491.206+467.48Z" fill="#ffffff" stroke-linecap="butt" opacity="1" stroke-linejoin="round"/>
<path d="M794.403+261.741L842.403+261.741L918.303+461.841L855.303+461.841L848.703+443.841L788.103+443.841L781.503+461.841L718.503+461.841L794.403+261.741ZM831.903+399.741L818.403+364.641L804.903+399.741L831.903+399.741Z" opacity="1" fill="#ffffff"/>
<path d="M907.803+261.741L960.303+261.741L1015.5+338.841L1015.5+261.741L1078.2+261.741L1078.2+461.841L1025.4+461.841L970.503+385.041L970.503+461.841L907.803+461.841L907.803+261.741Z" opacity="1" fill="#ffffff"/>
<path d="M1086.2+261.741L1138.7+261.741L1193.9+338.841L1193.9+261.741L1256.6+261.741L1256.6+461.841L1203.8+461.841L1148.9+385.041L1148.9+461.841L1086.2+461.841L1086.2+261.741Z" opacity="1" fill="#ffffff"/>
<path d="M1264.6+261.741L1382.5+261.741L1382.5+314.241L1328.5+314.241L1328.5+336.441L1381.6+336.441L1381.6+386.241L1328.5+386.241L1328.5+409.341L1384.6+409.341L1384.6+461.841L1264.6+461.841L1264.6+261.741Z" opacity="1" fill="#ffffff"/>
<path d="M1450+261.741L1498+261.741L1573.9+461.841L1510.9+461.841L1504.3+443.841L1443.7+443.841L1437.1+461.841L1374.1+461.841L1450+261.741ZM1487.5+399.741L1474+364.641L1460.5+399.741L1487.5+399.741Z" opacity="1" fill="#ffffff"/>
<path d="M1563.4+261.741L1632.4+261.741C1645.2+261.741+1657.05+263.441+1667.95+266.841C1678.85+270.241+1688.3+275.241+1696.3+281.841C1704.3+288.441+1710.55+296.591+1715.05+306.291C1719.55+315.991+1721.8+327.141+1721.8+339.741C1721.8+349.741+1720.4+358.241+1717.6+365.241C1714.8+372.241+1711.7+378.041+1708.3+382.641C1704.3+387.841+1699.8+392.241+1694.8+395.841L1732.3+461.841L1657.3+461.841L1627.3+411.141L1627.3+461.841L1563.4+461.841L1563.4+261.741ZM1627.3+360.141L1630.6+360.141C1638.2+360.141+1644.65+358.441+1649.95+355.041C1655.25+351.641+1657.9+345.941+1657.9+337.941C1657.9+329.941+1655.25+324.241+1649.95+320.841C1644.65+317.441+1638.2+315.741+1630.6+315.741L1627.3+315.741L1627.3+360.141Z" opacity="1" fill="#ffffff"/>
<path d="M1717.3+361.941C1717.3+345.941+1720.1+331.491+1725.7+318.591C1731.3+305.691+1738.9+294.641+1748.5+285.441C1758.1+276.241+1769.3+269.191+1782.1+264.291C1794.9+259.391+1808.5+256.941+1822.9+256.941C1834.3+256.941+1844.45+258.041+1853.35+260.241C1862.25+262.441+1869.9+264.941+1876.3+267.741C1883.7+270.941+1890.1+274.441+1895.5+278.241L1864+333.741C1860.8+331.341+1857.3+329.041+1853.5+326.841C1850.1+325.241+1846.05+323.691+1841.35+322.191C1836.65+320.691+1831.3+319.941+1825.3+319.941C1819.1+319.941+1813.4+321.041+1808.2+323.241C1803+325.441+1798.45+328.441+1794.55+332.241C1790.65+336.041+1787.6+340.491+1785.4+345.591C1783.2+350.691+1782.1+356.141+1782.1+361.941C1782.1+367.741+1783.25+373.191+1785.55+378.291C1787.85+383.391+1791+387.841+1795+391.641C1799+395.441+1803.7+398.441+1809.1+400.641C1814.5+402.841+1820.4+403.941+1826.8+403.941C1833.2+403.941+1838.9+403.141+1843.9+401.541C1848.9+399.941+1853.1+398.141+1856.5+396.141C1860.5+393.941+1864+391.341+1867+388.341L1898.5+443.841C1893.1+448.241+1886.7+452.141+1879.3+455.541C1872.9+458.341+1865.2+460.941+1856.2+463.341C1847.2+465.741+1836.9+466.941+1825.3+466.941C1809.7+466.941+1795.3+464.391+1782.1+459.291C1768.9+454.191+1757.5+447.041+1747.9+437.841C1738.3+428.641+1730.8+417.591+1725.4+404.691C1720+391.791+1717.3+377.541+1717.3+361.941Z" opacity="1" fill="#ffffff"/>
<path d="M1891+261.741L1954.9+261.741L1954.9+329.841L1990.6+329.841L1990.6+261.741L2054.8+261.741L2054.8+461.841L1990.6+461.841L1990.6+387.741L1954.9+387.741L1954.9+461.841L1891+461.841L1891+261.741Z" opacity="1" fill="#ffffff"/>
<path d="M2106.4+375.741L2044.3+261.741L2115.4+261.741L2138.5+304.041L2161.3+261.741L2232.4+261.741L2170.3+375.741L2170.3+461.841L2106.4+461.841L2106.4+375.741Z" opacity="1" fill="#ffffff"/>
<path d="M848.469+499.103L834.723+563.925L853.86+563.925C863.653+563.925+871.514+559.096+877.444+549.438C880.678+544.137+883.059+537.826+884.586+530.503C886.742+520.396+886.81+512.636+884.788+507.223C882.767+501.809+877.039+499.103+867.606+499.103L848.469+499.103ZM889.707+484.009C896.176+486.3+900.915+490.5+903.925+496.61C906.351+501.551+907.575+506.897+907.597+512.647C907.62+518.397+907.092+523.877+906.014+529.088C903.184+542.295+898.153+553.481+890.92+562.645C881.127+574.998+868.729+581.175+853.725+581.175L810.937+581.175L832.028+481.853L874.816+481.853C880.925+481.943+885.889+482.662+889.707+484.009Z" opacity="1" fill="#ffffff"/>
<path d="M929.598+581.175L908.979+581.175L930.069+481.853L950.689+481.853L929.598+581.175Z" opacity="1" fill="#ffffff"/>
<path d="M1030.2+512.849C1030.07+506.066+1027.24+501.327+1021.71+498.631C1018.61+497.149+1014.97+496.408+1010.79+496.408C1002.8+496.408+995.588+499.429+989.164+505.471C982.74+511.513+978.226+520.598+975.62+532.727C973.06+544.946+974.014+553.593+978.484+558.669C982.954+563.746+988.737+566.284+995.835+566.284C1002.8+566.284+1008.94+564.273+1014.26+560.253C1019.59+556.232+1023.44+550.965+1025.82+544.452L1002.84+544.452L1006.41+527.875L1047.79+527.875L1036.47+581.175L1022.72+581.175L1023.26+568.777C1018.23+573.494+1013.92+576.818+1010.32+578.749C1004.12+582.119+997.026+583.803+989.029+583.803C975.867+583.803+966.052+579.244+959.583+570.124C952.8+560.96+951.093+548.427+954.462+532.525C957.876+516.443+965.041+503.55+975.957+493.847C986.873+484.144+999.609+479.292+1014.16+479.292C1026.79+479.292+1036.24+482.493+1042.53+488.894C1048.82+495.296+1051.52+503.281+1050.62+512.849L1030.2+512.849Z" opacity="1" fill="#ffffff"/>
<path d="M1075.28+581.175L1054.66+581.175L1075.75+481.853L1096.37+481.853L1075.28+581.175Z" opacity="1" fill="#ffffff"/>
<path d="M1187.88+481.853L1184.1+499.44L1154.39+499.44L1137.07+581.175L1116.18+581.175L1133.5+499.44L1103.65+499.44L1107.42+481.853L1187.88+481.853Z" opacity="1" fill="#ffffff"/>
<path d="M1203.85+543.643L1229.05+543.643L1224.94+504.561L1203.85+543.643ZM1218.27+481.853L1241.72+481.853L1255.8+581.175L1233.29+581.175L1231.2+560.758L1194.61+560.758L1183.43+581.175L1161.73+581.175L1218.27+481.853Z" opacity="1" fill="#ffffff"/>
<path d="M1289.49+481.853L1310.24+481.853L1292.93+563.319L1342.12+563.319L1338.34+581.175L1268.4+581.175L1289.49+481.853Z" opacity="1" fill="#ffffff"/>
</g>
</svg>
